<svg xmlns="http://www.w3.org/2000/svg" xmlns:xlink="http://www.w3.org/1999/xlink" contentStyleType="text/css" height="2000px" preserveAspectRatio="none" style="width:3845px;height:2000px;background:#FEFEFE;" version="1.1" viewBox="0 0 3845 2000" width="3845.8333px" zoomAndPan="magnify"><title>Sequence Diagram - Clinical Assistant Q&amp;A with Emergency Escalation</title><defs/><g><rect fill="#FEFEFE" height="2000" style="stroke:none;stroke-width:2.0833333333333335;" width="3845.8333" x="0" y="0"/><text fill="#000000" font-family="sans-serif" font-size="29.1667" font-weight="bold" lengthAdjust="spacing" textLength="990.3422" x="1431.8008" y="61.5275">Sequence Diagram - Clinical Assistant Q&amp;A with Emergency Escalation</text><rect fill="none" height="480.8594" style="stroke:#000000;stroke-width:3.125;" width="3037.4807" x="797.7132" y="961.8652"/><rect fill="none" height="291.1621" style="stroke:#000000;stroke-width:3.125;" width="1475.6592" x="20.8333" y="1471.8913"/><line style="stroke:#6C8EBF;stroke-width:1.0416666666666667;stroke-dasharray:5.0,5.0;" x1="93.75" x2="93.75" y1="260.0586" y2="1798.4701"/><line style="stroke:#6C8EBF;stroke-width:1.0416666666666667;stroke-dasharray:5.0,5.0;" x1="432.7952" x2="432.7952" y1="260.0586" y2="1798.4701"/><line style="stroke:#6C8EBF;stroke-width:1.0416666666666667;stroke-dasharray:5.0,5.0;" x1="928.9632" x2="928.9632" y1="260.0586" y2="1798.4701"/><line style="stroke:#6C8EBF;stroke-width:1.0416666666666667;stroke-dasharray:5.0,5.0;" x1="1386.967" x2="1386.967" y1="260.0586" y2="1798.4701"/><line style="stroke:#6C8EBF;stroke-width:1.0416666666666667;stroke-dasharray:5.0,5.0;" x1="1793.5842" x2="1793.5842" y1="260.0586" y2="1798.4701"/><line style="stroke:#6C8EBF;stroke-width:1.0416666666666667;stroke-dasharray:5.0,5.0;" x1="2024.2442" x2="2024.2442" y1="260.0586" y2="1798.4701"/><line style="stroke:#6C8EBF;stroke-width:1.0416666666666667;stroke-dasharray:5.0,5.0;" x1="2204.6173" x2="2204.6173" y1="260.0586" y2="1798.4701"/><line style="stroke:#6C8EBF;stroke-width:1.0416666666666667;stroke-dasharray:5.0,5.0;" x1="2479.2796" x2="2479.2796" y1="260.0586" y2="1798.4701"/><line style="stroke:#6C8EBF;stroke-width:1.0416666666666667;stroke-dasharray:5.0,5.0;" x1="2706.4768" x2="2706.4768" y1="260.0586" y2="1798.4701"/><line style="stroke:#6C8EBF;stroke-width:1.0416666666666667;stroke-dasharray:5.0,5.0;" x1="3136.8449" x2="3136.8449" y1="260.0586" y2="1798.4701"/><line style="stroke:#6C8EBF;stroke-width:1.0416666666666667;stroke-dasharray:5.0,5.0;" x1="3381.601" x2="3381.601" y1="260.0586" y2="1798.4701"/><line style="stroke:#6C8EBF;stroke-width:1.0416666666666667;stroke-dasharray:5.0,5.0;" x1="3744.1742" x2="3744.1742" y1="260.0586" y2="1798.4701"/><text fill="#000000" font-family="sans-serif" font-size="29.1667" lengthAdjust="spacing" textLength="95.6177" x="41.6667" y="253.6499">Wearer</text><ellipse cx="95.7255" cy="116.0807" fill="#DAE8FC" rx="16.6667" ry="16.6667" style="stroke:#6C8EBF;stroke-width:1.0416666666666667;"/><path d="M95.7255,132.7474 L95.7255,188.9974 M68.6422,149.4141 L122.8088,149.4141 M95.7255,188.9974 L68.6422,220.2474 M95.7255,188.9974 L122.8088,220.2474 " fill="none" style="stroke:#6C8EBF;stroke-width:1.0416666666666667;"/><text fill="#000000" font-family="sans-serif" font-size="29.1667" lengthAdjust="spacing" textLength="95.6177" x="41.6667" y="1826.6642">Wearer</text><ellipse cx="95.7255" cy="1850.7813" fill="#DAE8FC" rx="16.6667" ry="16.6667" style="stroke:#6C8EBF;stroke-width:1.0416666666666667;"/><path d="M95.7255,1867.4479 L95.7255,1923.6979 M68.6422,1884.1146 L122.8088,1884.1146 M95.7255,1923.6979 L68.6422,1954.9479 M95.7255,1923.6979 L122.8088,1954.9479 " fill="none" style="stroke:#6C8EBF;stroke-width:1.0416666666666667;"/><rect fill="#DAE8FC" height="102.5391" rx="5.2083" ry="5.2083" style="stroke:#6C8EBF;stroke-width:1.0416666666666667;" width="239.9129" x="314.0452" y="155.4362"/><text fill="#000000" font-family="sans-serif" font-size="29.1667" lengthAdjust="spacing" textLength="210.7463" x="328.6285" y="200.297">AssistantScreen</text><text fill="#000000" font-family="sans-serif" font-size="29.1667" lengthAdjust="spacing" textLength="48.5921" x="409.7056" y="236.9832">(UI)</text><rect fill="#DAE8FC" height="102.5391" rx="5.2083" ry="5.2083" style="stroke:#6C8EBF;stroke-width:1.0416666666666667;" width="239.9129" x="314.0452" y="1796.3867"/><text fill="#000000" font-family="sans-serif" font-size="29.1667" lengthAdjust="spacing" textLength="210.7463" x="328.6285" y="1841.2476">AssistantScreen</text><text fill="#000000" font-family="sans-serif" font-size="29.1667" lengthAdjust="spacing" textLength="48.5921" x="409.7056" y="1877.9338">(UI)</text><rect fill="#DAE8FC" height="65.8529" rx="5.2083" ry="5.2083" style="stroke:#6C8EBF;stroke-width:1.0416666666666667;" width="222.0683" x="818.5465" y="192.1224"/><text fill="#000000" font-family="sans-serif" font-size="29.1667" lengthAdjust="spacing" textLength="192.9016" x="833.1299" y="236.9832">AssistantClient</text><rect fill="#DAE8FC" height="65.8529" rx="5.2083" ry="5.2083" style="stroke:#6C8EBF;stroke-width:1.0416666666666667;" width="222.0683" x="818.5465" y="1796.3867"/><text fill="#000000" font-family="sans-serif" font-size="29.1667" lengthAdjust="spacing" textLength="192.9016" x="833.1299" y="1841.2476">AssistantClient</text><text fill="#000000" font-family="sans-serif" font-size="29.1667" lengthAdjust="spacing" textLength="103.7354" x="1329.4454" y="216.9637">FastAPI</text><text fill="#000000" font-family="sans-serif" font-size="29.1667" lengthAdjust="spacing" textLength="163.6922" x="1299.467" y="253.6499">(HF Spaces)</text><path d="M1344.8547,128.3529 L1344.8547,178.3529 M1344.8547,153.3529 L1380.2714,153.3529 " fill="none" style="stroke:#181818;stroke-width:1.0416666666666667;"/><ellipse cx="1405.2714" cy="153.3529" fill="#E2E2F0" rx="25" ry="25" style="stroke:#181818;stroke-width:1.0416666666666667;"/><text fill="#000000" font-family="sans-serif" font-size="29.1667" lengthAdjust="spacing" textLength="103.7354" x="1329.4454" y="1826.6642">FastAPI</text><text fill="#000000" font-family="sans-serif" font-size="29.1667" lengthAdjust="spacing" textLength="163.6922" x="1299.467" y="1863.3504">(HF Spaces)</text><path d="M1344.8547,1878.0924 L1344.8547,1928.0924 M1344.8547,1903.0924 L1380.2714,1903.0924 " fill="none" style="stroke:#181818;stroke-width:1.0416666666666667;"/><ellipse cx="1405.2714" cy="1903.0924" fill="#E2E2F0" rx="25" ry="25" style="stroke:#181818;stroke-width:1.0416666666666667;"/><rect fill="#DAE8FC" height="102.5391" rx="5.2083" ry="5.2083" style="stroke:#6C8EBF;stroke-width:1.0416666666666667;" width="286.91" x="1651.9175" y="155.4362"/><text fill="#000000" font-family="sans-serif" font-size="29.1667" lengthAdjust="spacing" textLength="257.7433" x="1666.5009" y="200.297">EmergencyDetector</text><text fill="#000000" font-family="sans-serif" font-size="29.1667" lengthAdjust="spacing" textLength="183.1319" x="1703.8066" y="236.9832">(deterministic)</text><rect fill="#DAE8FC" height="102.5391" rx="5.2083" ry="5.2083" style="stroke:#6C8EBF;stroke-width:1.0416666666666667;" width="286.91" x="1651.9175" y="1796.3867"/><text fill="#000000" font-family="sans-serif" font-size="29.1667" lengthAdjust="spacing" textLength="257.7433" x="1666.5009" y="1841.2476">EmergencyDetector</text><text fill="#000000" font-family="sans-serif" font-size="29.1667" lengthAdjust="spacing" textLength="183.1319" x="1703.8066" y="1877.9338">(deterministic)</text><text fill="#000000" font-family="sans-serif" font-size="29.1667" lengthAdjust="spacing" textLength="119.9565" x="1959.6608" y="216.9637">Groq API</text><text fill="#000000" font-family="sans-serif" font-size="29.1667" lengthAdjust="spacing" textLength="76.1637" x="1981.5572" y="253.6499">(LLM)</text><path d="M1983.1807,128.3529 L1983.1807,178.3529 M1983.1807,153.3529 L2018.5974,153.3529 " fill="none" style="stroke:#181818;stroke-width:1.0416666666666667;"/><ellipse cx="2043.5974" cy="153.3529" fill="#E2E2F0" rx="25" ry="25" style="stroke:#181818;stroke-width:1.0416666666666667;"/><text fill="#000000" font-family="sans-serif" font-size="29.1667" lengthAdjust="spacing" textLength="119.9565" x="1959.6608" y="1826.6642">Groq API</text><text fill="#000000" font-family="sans-serif" font-size="29.1667" lengthAdjust="spacing" textLength="76.1637" x="1981.5572" y="1863.3504">(LLM)</text><path d="M1983.1807,1878.0924 L1983.1807,1928.0924 M1983.1807,1903.0924 L2018.5974,1903.0924 " fill="none" style="stroke:#181818;stroke-width:1.0416666666666667;"/><ellipse cx="2043.5974" cy="1903.0924" fill="#E2E2F0" rx="25" ry="25" style="stroke:#181818;stroke-width:1.0416666666666667;"/><rect fill="#DAE8FC" height="65.8529" rx="5.2083" ry="5.2083" style="stroke:#6C8EBF;stroke-width:1.0416666666666667;" width="186.3932" x="2112.9506" y="192.1224"/><text fill="#000000" font-family="sans-serif" font-size="29.1667" lengthAdjust="spacing" textLength="157.2266" x="2127.534" y="236.9832">AlertService</text><rect fill="#DAE8FC" height="65.8529" rx="5.2083" ry="5.2083" style="stroke:#6C8EBF;stroke-width:1.0416666666666667;" width="186.3932" x="2112.9506" y="1796.3867"/><text fill="#000000" font-family="sans-serif" font-size="29.1667" lengthAdjust="spacing" textLength="157.2266" x="2127.534" y="1841.2476">AlertService</text><text fill="#000000" font-family="sans-serif" font-size="29.1667" lengthAdjust="spacing" textLength="131.3639" x="2408.4462" y="216.9637">Supabase</text><text fill="#000000" font-family="sans-serif" font-size="29.1667" lengthAdjust="spacing" textLength="90.7471" x="2428.7547" y="253.6499">(alerts)</text><path d="M2442.8782,111.6862 C2442.8782,90.8529 2480.3782,90.8529 2480.3782,90.8529 C2480.3782,90.8529 2517.8782,90.8529 2517.8782,111.6862 L2517.8782,165.8529 C2517.8782,186.6862 2480.3782,186.6862 2480.3782,186.6862 C2480.3782,186.6862 2442.8782,186.6862 2442.8782,165.8529 L2442.8782,111.6862 " fill="#E2E2F0" style="stroke:#181818;stroke-width:3.125;"/><path d="M2442.8782,111.6862 C2442.8782,132.5195 2480.3782,132.5195 2480.3782,132.5195 C2480.3782,132.5195 2517.8782,132.5195 2517.8782,111.6862 " fill="none" style="stroke:#181818;stroke-width:3.125;"/><text fill="#000000" font-family="sans-serif" font-size="29.1667" lengthAdjust="spacing" textLength="131.3639" x="2408.4462" y="1826.6642">Supabase</text><text fill="#000000" font-family="sans-serif" font-size="29.1667" lengthAdjust="spacing" textLength="90.7471" x="2428.7547" y="1863.3504">(alerts)</text><path d="M2442.8782,1890.5924 C2442.8782,1869.7591 2480.3782,1869.7591 2480.3782,1869.7591 C2480.3782,1869.7591 2517.8782,1869.7591 2517.8782,1890.5924 L2517.8782,1944.7591 C2517.8782,1965.5924 2480.3782,1965.5924 2480.3782,1965.5924 C2480.3782,1965.5924 2442.8782,1965.5924 2442.8782,1944.7591 L2442.8782,1890.5924 " fill="#E2E2F0" style="stroke:#181818;stroke-width:3.125;"/><path d="M2442.8782,1890.5924 C2442.8782,1911.4258 2480.3782,1911.4258 2480.3782,1911.4258 C2480.3782,1911.4258 2517.8782,1911.4258 2517.8782,1890.5924 " fill="none" style="stroke:#181818;stroke-width:3.125;"/><rect fill="#DAE8FC" height="65.8529" rx="5.2083" ry="5.2083" style="stroke:#6C8EBF;stroke-width:1.0416666666666667;" width="270.7031" x="2573.1435" y="192.1224"/><text fill="#000000" font-family="sans-serif" font-size="29.1667" lengthAdjust="spacing" textLength="241.5365" x="2587.7268" y="236.9832">NotificationService</text><rect fill="#DAE8FC" height="65.8529" rx="5.2083" ry="5.2083" style="stroke:#6C8EBF;stroke-width:1.0416666666666667;" width="270.7031" x="2573.1435" y="1796.3867"/><text fill="#000000" font-family="sans-serif" font-size="29.1667" lengthAdjust="spacing" textLength="241.5365" x="2587.7268" y="1841.2476">NotificationService</text><text fill="#000000" font-family="sans-serif" font-size="29.1667" lengthAdjust="spacing" textLength="63.1755" x="3100.0488" y="253.6499">FCM</text><path d="M3095.1782,165.0391 L3095.1782,215.0391 M3095.1782,190.0391 L3130.5949,190.0391 " fill="none" style="stroke:#181818;stroke-width:1.0416666666666667;"/><ellipse cx="3155.5949" cy="190.0391" fill="#E2E2F0" rx="25" ry="25" style="stroke:#181818;stroke-width:1.0416666666666667;"/><text fill="#000000" font-family="sans-serif" font-size="29.1667" lengthAdjust="spacing" textLength="63.1755" x="3100.0488" y="1826.6642">FCM</text><path d="M3095.1782,1841.4063 L3095.1782,1891.4063 M3095.1782,1866.4063 L3130.5949,1866.4063 " fill="none" style="stroke:#181818;stroke-width:1.0416666666666667;"/><ellipse cx="3155.5949" cy="1866.4063" fill="#E2E2F0" rx="25" ry="25" style="stroke:#181818;stroke-width:1.0416666666666667;"/><rect fill="#DAE8FC" height="65.8529" rx="5.2083" ry="5.2083" style="stroke:#6C8EBF;stroke-width:1.0416666666666667;" width="212.3698" x="3277.4343" y="192.1224"/><text fill="#000000" font-family="sans-serif" font-size="29.1667" lengthAdjust="spacing" textLength="183.2031" x="3292.0176" y="236.9832">Caregiver app</text><rect fill="#DAE8FC" height="65.8529" rx="5.2083" ry="5.2083" style="stroke:#6C8EBF;stroke-width:1.0416666666666667;" width="212.3698" x="3277.4343" y="1796.3867"/><text fill="#000000" font-family="sans-serif" font-size="29.1667" lengthAdjust="spacing" textLength="183.2031" x="3292.0176" y="1841.2476">Caregiver app</text><text fill="#000000" font-family="sans-serif" font-size="29.1667" lengthAdjust="spacing" textLength="126.4364" x="3675.4242" y="253.6499">Caregiver</text><ellipse cx="3744.8924" cy="116.0807" fill="#DAE8FC" rx="16.6667" ry="16.6667" style="stroke:#6C8EBF;stroke-width:1.0416666666666667;"/><path d="M3744.8924,132.7474 L3744.8924,188.9974 M3717.809,149.4141 L3771.9757,149.4141 M3744.8924,188.9974 L3717.809,220.2474 M3744.8924,188.9974 L3771.9757,220.2474 " fill="none" style="stroke:#6C8EBF;stroke-width:1.0416666666666667;"/><text fill="#000000" font-family="sans-serif" font-size="29.1667" lengthAdjust="spacing" textLength="126.4364" x="3675.4242" y="1826.6642">Caregiver</text><ellipse cx="3744.8924" cy="1850.7813" fill="#DAE8FC" rx="16.6667" ry="16.6667" style="stroke:#6C8EBF;stroke-width:1.0416666666666667;"/><path d="M3744.8924,1867.4479 L3744.8924,1923.6979 M3717.809,1884.1146 L3771.9757,1884.1146 M3744.8924,1923.6979 L3717.809,1954.9479 M3744.8924,1923.6979 L3771.9757,1954.9479 " fill="none" style="stroke:#6C8EBF;stroke-width:1.0416666666666667;"/><polygon fill="#444444" points="409.0017,319.1243,429.835,327.4577,409.0017,335.791,417.335,327.4577" style="stroke:#444444;stroke-width:2.0833333333333335;"/><line style="stroke:#444444;stroke-width:2.0833333333333335;" x1="95.7255" x2="421.5017" y1="327.4577" y2="327.4577"/><text fill="#000000" font-family="sans-serif" font-size="27.0833" lengthAdjust="spacing" textLength="250.706" x="110.3088" y="317.3401">type question + send</text><polygon fill="#444444" points="904.5807,382.3568,925.414,390.6901,904.5807,399.0234,912.914,390.6901" style="stroke:#444444;stroke-width:2.0833333333333335;"/><line style="stroke:#444444;stroke-width:2.0833333333333335;" x1="434.0017" x2="917.0807" y1="390.6901" y2="390.6901"/><text fill="#000000" font-family="sans-serif" font-size="27.0833" lengthAdjust="spacing" textLength="273.9939" x="448.585" y="380.5725">chat(question, context)</text><polygon fill="#444444" points="1362.5631,479.6549,1383.3964,487.9883,1362.5631,496.3216,1370.8964,487.9883" style="stroke:#444444;stroke-width:2.0833333333333335;"/><line style="stroke:#444444;stroke-width:2.0833333333333335;" x1="929.5807" x2="1375.0631" y1="487.9883" y2="487.9883"/><text fill="#000000" font-family="sans-serif" font-size="27.0833" lengthAdjust="spacing" textLength="139.979" x="944.164" y="443.8049">POST /chat</text><text fill="#000000" font-family="sans-serif" font-size="27.0833" lengthAdjust="spacing" textLength="271.0052" x="944.164" y="477.8707">{question, context, jwt}</text><polygon fill="#444444" points="1770.3725,542.8874,1791.2059,551.2207,1770.3725,559.554,1778.7059,551.2207" style="stroke:#444444;stroke-width:2.0833333333333335;"/><line style="stroke:#444444;stroke-width:2.0833333333333335;" x1="1387.5631" x2="1782.8725" y1="551.2207" y2="551.2207"/><text fill="#000000" font-family="sans-serif" font-size="27.0833" lengthAdjust="spacing" textLength="194.2118" x="1402.1464" y="541.1031">detect(question)</text><polygon fill="#444444" points="1410.4797,606.1198,1389.6464,614.4531,1410.4797,622.7865,1402.1464,614.4531" style="stroke:#444444;stroke-width:2.0833333333333335;"/><line style="stroke:#444444;stroke-width:2.0833333333333335;stroke-dasharray:2.0,2.0;" x1="1397.9797" x2="1793.2892" y1="614.4531" y2="614.4531"/><text fill="#000000" font-family="sans-serif" font-size="27.0833" lengthAdjust="spacing" textLength="357.8094" x="1422.9797" y="604.3355">{ emergency:true|false, flags }</text><polygon fill="#444444" points="2000.8891,669.3522,2021.7224,677.6855,2000.8891,686.0189,2009.2224,677.6855" style="stroke:#444444;stroke-width:2.0833333333333335;"/><line style="stroke:#444444;stroke-width:2.0833333333333335;" x1="1387.5631" x2="2013.3891" y1="677.6855" y2="677.6855"/><text fill="#000000" font-family="sans-serif" font-size="27.0833" lengthAdjust="spacing" textLength="363.4827" x="1402.1464" y="667.568">completions(system + prompt)</text><polygon fill="#444444" points="1410.4797,732.5846,1389.6464,740.918,1410.4797,749.2513,1402.1464,740.918" style="stroke:#444444;stroke-width:2.0833333333333335;"/><line style="stroke:#444444;stroke-width:2.0833333333333335;stroke-dasharray:2.0,2.0;" x1="1397.9797" x2="2023.8057" y1="740.918" y2="740.918"/><text fill="#000000" font-family="sans-serif" font-size="27.0833" lengthAdjust="spacing" textLength="217.5262" x="1422.9797" y="730.8004">answer + citations</text><polygon fill="#444444" points="952.4974,795.8171,931.664,804.1504,952.4974,812.4837,944.164,804.1504" style="stroke:#444444;stroke-width:2.0833333333333335;"/><line style="stroke:#444444;stroke-width:2.0833333333333335;stroke-dasharray:2.0,2.0;" x1="939.9974" x2="1385.4797" y1="804.1504" y2="804.1504"/><text fill="#000000" font-family="sans-serif" font-size="27.0833" lengthAdjust="spacing" textLength="407.9824" x="964.9974" y="794.0328">{ response, citations, emergency }</text><polygon fill="#444444" points="456.9183,859.0495,436.085,867.3828,456.9183,875.7161,448.585,867.3828" style="stroke:#444444;stroke-width:2.0833333333333335;"/><line style="stroke:#444444;stroke-width:2.0833333333333335;stroke-dasharray:2.0,2.0;" x1="444.4183" x2="927.4974" y1="867.3828" y2="867.3828"/><text fill="#000000" font-family="sans-serif" font-size="27.0833" lengthAdjust="spacing" textLength="78.2878" x="469.4183" y="857.2652">render</text><polygon fill="#444444" points="118.6422,922.2819,97.8088,930.6152,118.6422,938.9486,110.3088,930.6152" style="stroke:#444444;stroke-width:2.0833333333333335;"/><line style="stroke:#444444;stroke-width:2.0833333333333335;" x1="106.1422" x2="431.9183" y1="930.6152" y2="930.6152"/><text fill="#000000" font-family="sans-serif" font-size="27.0833" lengthAdjust="spacing" textLength="288.2762" x="131.1422" y="920.4976">show answer + citations</text><path d="M797.7132,961.8652 L933.5693,961.8652 L933.5693,979.2643 L912.736,1000.0977 L797.7132,1000.0977 L797.7132,961.8652 " fill="#EEEEEE" style="stroke:#000000;stroke-width:3.125;"/><rect fill="none" height="480.8594" style="stroke:#000000;stroke-width:3.125;" width="3037.4807" x="797.7132" y="961.8652"/><text fill="#000000" font-family="sans-serif" font-size="27.0833" font-weight="bold" lengthAdjust="spacing" textLength="42.1061" x="828.9632" y="992.0634">opt</text><text fill="#000000" font-family="sans-serif" font-size="22.9167" font-weight="bold" lengthAdjust="spacing" textLength="219.0735" x="964.8193" y="989.8214">[emergency == true]</text><polygon fill="#444444" points="2181.1473,1038.3301,2201.9806,1046.6634,2181.1473,1054.9967,2189.4806,1046.6634" style="stroke:#444444;stroke-width:2.0833333333333335;"/><line style="stroke:#444444;stroke-width:2.0833333333333335;" x1="929.5807" x2="2193.6473" y1="1046.6634" y2="1046.6634"/><text fill="#000000" font-family="sans-serif" font-size="27.0833" lengthAdjust="spacing" textLength="718.6208" x="944.164" y="1036.5458">createAlert(type='assistant_emergency', wearer_id, snippet)</text><polygon fill="#444444" points="2455.3782,1101.5625,2476.2115,1109.8958,2455.3782,1118.2292,2463.7115,1109.8958" style="stroke:#444444;stroke-width:2.0833333333333335;"/><line style="stroke:#444444;stroke-width:2.0833333333333335;" x1="2206.1473" x2="2467.8782" y1="1109.8958" y2="1109.8958"/><text fill="#000000" font-family="sans-serif" font-size="27.0833" lengthAdjust="spacing" textLength="224.231" x="2220.7306" y="1099.7782">INSERT alerts row</text><polygon fill="#444444" points="2229.0639,1164.7949,2208.2306,1173.1283,2229.0639,1181.4616,2220.7306,1173.1283" style="stroke:#444444;stroke-width:2.0833333333333335;"/><line style="stroke:#444444;stroke-width:2.0833333333333335;stroke-dasharray:2.0,2.0;" x1="2216.5639" x2="2478.2949" y1="1173.1283" y2="1173.1283"/><text fill="#000000" font-family="sans-serif" font-size="27.0833" lengthAdjust="spacing" textLength="88.8275" x="2241.5639" y="1163.0107">alert_id</text><polygon fill="#444444" points="2683.4951,1228.0273,2704.3284,1236.3607,2683.4951,1244.694,2691.8284,1236.3607" style="stroke:#444444;stroke-width:2.0833333333333335;"/><line style="stroke:#444444;stroke-width:2.0833333333333335;" x1="2206.1473" x2="2695.9951" y1="1236.3607" y2="1236.3607"/><text fill="#000000" font-family="sans-serif" font-size="27.0833" lengthAdjust="spacing" textLength="425.9806" x="2220.7306" y="1226.2431">pushToCaregivers(wearer_id, alert)</text><polygon fill="#444444" points="3112.8866,1291.2598,3133.7199,1299.5931,3112.8866,1307.9264,3121.2199,1299.5931" style="stroke:#444444;stroke-width:2.0833333333333335;"/><line style="stroke:#444444;stroke-width:2.0833333333333335;" x1="2708.4951" x2="3125.3866" y1="1299.5931" y2="1299.5931"/><text fill="#000000" font-family="sans-serif" font-size="27.0833" lengthAdjust="spacing" textLength="379.3915" x="2723.0784" y="1289.4755">send(payload, caregiver_token)</text><polygon fill="#444444" points="3358.6192,1354.4922,3379.4525,1362.8255,3358.6192,1371.1589,3366.9525,1362.8255" style="stroke:#444444;stroke-width:2.0833333333333335;"/><line style="stroke:#444444;stroke-width:2.0833333333333335;" x1="3137.8866" x2="3371.1192" y1="1362.8255" y2="1362.8255"/><text fill="#000000" font-family="sans-serif" font-size="27.0833" lengthAdjust="spacing" textLength="195.7326" x="3152.4699" y="1352.7079">push notification</text><polygon fill="#444444" points="3719.8924,1417.7246,3740.7257,1426.0579,3719.8924,1434.3913,3728.2257,1426.0579" style="stroke:#444444;stroke-width:2.0833333333333335;"/><line style="stroke:#444444;stroke-width:2.0833333333333335;" x1="3383.6192" x2="3732.3924" y1="1426.0579" y2="1426.0579"/><text fill="#000000" font-family="sans-serif" font-size="27.0833" lengthAdjust="spacing" textLength="311.2732" x="3398.2025" y="1415.9403">show "emergency in chat"</text><path d="M20.8333,1471.8913 L156.6895,1471.8913 L156.6895,1489.2904 L135.8561,1510.1237 L20.8333,1510.1237 L20.8333,1471.8913 " fill="#EEEEEE" style="stroke:#000000;stroke-width:3.125;"/><rect fill="none" height="291.1621" style="stroke:#000000;stroke-width:3.125;" width="1475.6592" x="20.8333" y="1471.8913"/><text fill="#000000" font-family="sans-serif" font-size="27.0833" font-weight="bold" lengthAdjust="spacing" textLength="42.1061" x="52.0833" y="1502.0894">opt</text><text fill="#000000" font-family="sans-serif" font-size="22.9167" font-weight="bold" lengthAdjust="spacing" textLength="169.3909" x="187.9395" y="1499.8474">[user feedback]</text><polygon fill="#444444" points="409.0017,1548.3561,429.835,1556.6895,409.0017,1565.0228,417.335,1556.6895" style="stroke:#444444;stroke-width:2.0833333333333335;"/><line style="stroke:#444444;stroke-width:2.0833333333333335;" x1="95.7255" x2="421.5017" y1="1556.6895" y2="1556.6895"/><text fill="#000000" font-family="sans-serif" font-size="27.0833" lengthAdjust="spacing" textLength="243.9087" x="110.3088" y="1546.5719">tap thumbs up/down</text><polygon fill="#444444" points="904.5807,1611.5885,925.414,1619.9219,904.5807,1628.2552,912.914,1619.9219" style="stroke:#444444;stroke-width:2.0833333333333335;"/><line style="stroke:#444444;stroke-width:2.0833333333333335;" x1="434.0017" x2="917.0807" y1="1619.9219" y2="1619.9219"/><text fill="#000000" font-family="sans-serif" font-size="27.0833" lengthAdjust="spacing" textLength="445.579" x="448.585" y="1609.8043">submitFeedback(rating, message_id)</text><polygon fill="#444444" points="1362.5631,1674.821,1383.3964,1683.1543,1362.5631,1691.4876,1370.8964,1683.1543" style="stroke:#444444;stroke-width:2.0833333333333335;"/><line style="stroke:#444444;stroke-width:2.0833333333333335;" x1="929.5807" x2="1375.0631" y1="1683.1543" y2="1683.1543"/><text fill="#000000" font-family="sans-serif" font-size="27.0833" lengthAdjust="spacing" textLength="198.7081" x="944.164" y="1673.0367">POST /feedback</text><polygon fill="#444444" points="952.4974,1738.0534,931.664,1746.3867,952.4974,1754.7201,944.164,1746.3867" style="stroke:#444444;stroke-width:2.0833333333333335;"/><line style="stroke:#444444;stroke-width:2.0833333333333335;stroke-dasharray:2.0,2.0;" x1="939.9974" x2="1385.4797" y1="1746.3867" y2="1746.3867"/><text fill="#000000" font-family="sans-serif" font-size="27.0833" lengthAdjust="spacing" textLength="91.8427" x="964.9974" y="1736.2691">200 OK</text><!--SRC=[VLLjRzem4FwUNt5YqWeggDKqJLMbJk8bT6XzssYrBvMGIOxWDR4zsob5RFzzPpk4GDU53oHtpprtVkukiTpc25FyLQ9844QSPPeLq8DXpWLFM0vzOxYnJ5ZuzhuFAswN41UeCyAl8JO4OPPB4PadBXHpmMR9KhdY8eC5omqsFAdYyE7qj66Pi-Gfqx8KwL3cKiExSUn-JRPjRPi8wEfhBLSLzgE_lFcAB_2A2nn8dQAk_9-6P_5WxFrtJ5kUS4Nd61oc7FNZi_7m5UmDfdvYfVuVHm2y4JsGBtkkCtz5VwA8kJ3uWKoZZjIk3cZL7PWc6b4yYlR3fDC2Pk1XyWQIkeV2UaouZUQkMARNq1epO_jt4wBvCeQfOWcQm4R6VRgwpoEqwCgZc9HkTK6pOGWNuk9HW_rIoryGwA-khWF0sGuApL7RAUfddc38xGmcIfbbSsOGMjDI-JlYOTuNg4Q3VQ8RQVc2vjIDO9FFsvk77bvxE_tl4mn9xum_emQcL13iSjPNgkf7xOwYq1heVIRPuHpiMY7GQ1gN6evfJaKQaOVyGNB294jcsrjC5n8fBBxOJbG124fA4UxkTdeF9mxzA3Qly5tukR8q8GvB8V688bBVaPgx4v6rL_Dj0BUjExUwnDz-4Rkmo5bcO4VbcqLboaBbw7XCswoDnOBEepHPgLQFsL4pOLQamZ4at7hLJSNMFFS6D1f5FifPuxgxegY4hGHREJN9Hoe70Ikfp-bL8bV_J2cLRT1TN80xfj-mXhP-RjpvD3AB_h7jsdPnnBQBCgj9ZhgmycbdFEs24LmffEFxZGv4H3aQ4DtaPXf_luSmba2l8myYLw-PrBk9wu313oQvLMcMzx8UBzDk9FUX8NM0KnmDhjE3L6ehjiub8rooZPvP-OGYH3YWwuMVuYeHYCQQ19M2sm7h1QZaRkrqvSAFS2joi-qrBmq15uYfUt5xfiErO0hiiYpc1afrGj-1aEzWCKmvBxWTLpnjJOM9h0i56iCo914wXxrixCbU-bUpHzyNkFtgA_uB]--></g></svg>