<svg xmlns="http://www.w3.org/2000/svg" xmlns:xlink="http://www.w3.org/1999/xlink" contentStyleType="text/css" height="2829.1667px" preserveAspectRatio="none" style="width:2818px;height:2829px;background:#FEFEFE;" version="1.1" viewBox="0 0 2818 2829" width="2818.75px" zoomAndPan="magnify"><title>Sequence Diagram - Caregiver Linking (Invite -&gt; Accept)</title><defs/><g><rect fill="#FEFEFE" height="2829.1667" style="stroke:none;stroke-width:2.0833333333333335;" width="2818.75" x="0" y="0"/><text fill="#000000" font-family="sans-serif" font-size="29.1667" font-weight="bold" lengthAdjust="spacing" textLength="778.7984" x="1012.5997" y="61.5275">Sequence Diagram - Caregiver Linking (Invite -&gt; Accept)</text><rect fill="none" height="674.3815" style="stroke:#000000;stroke-width:3.125;" width="2507.6487" x="20.8333" y="640.804"/><line style="stroke:#6C8EBF;stroke-width:1.0416666666666667;stroke-dasharray:5.0,5.0;" x1="93.75" x2="93.75" y1="260.0586" y2="2627.7507"/><line style="stroke:#6C8EBF;stroke-width:1.0416666666666667;stroke-dasharray:5.0,5.0;" x1="401.6622" x2="401.6622" y1="260.0586" y2="2627.7507"/><line style="stroke:#6C8EBF;stroke-width:1.0416666666666667;stroke-dasharray:5.0,5.0;" x1="723.1923" x2="723.1923" y1="260.0586" y2="2627.7507"/><line style="stroke:#6C8EBF;stroke-width:1.0416666666666667;stroke-dasharray:5.0,5.0;" x1="1346.9137" x2="1346.9137" y1="260.0586" y2="2627.7507"/><line style="stroke:#6C8EBF;stroke-width:1.0416666666666667;stroke-dasharray:5.0,5.0;" x1="1615.0309" x2="1615.0309" y1="260.0586" y2="2627.7507"/><line style="stroke:#6C8EBF;stroke-width:1.0416666666666667;stroke-dasharray:5.0,5.0;" x1="2045.399" x2="2045.399" y1="260.0586" y2="2627.7507"/><line style="stroke:#6C8EBF;stroke-width:1.0416666666666667;stroke-dasharray:5.0,5.0;" x1="2393.1956" x2="2393.1956" y1="260.0586" y2="2627.7507"/><line style="stroke:#6C8EBF;stroke-width:1.0416666666666667;stroke-dasharray:5.0,5.0;" x1="2721.5871" x2="2721.5871" y1="260.0586" y2="2627.7507"/><text fill="#000000" font-family="sans-serif" font-size="29.1667" lengthAdjust="spacing" textLength="95.6177" x="41.6667" y="253.6499">Wearer</text><ellipse cx="95.7255" cy="116.0807" fill="#DAE8FC" rx="16.6667" ry="16.6667" style="stroke:#6C8EBF;stroke-width:1.0416666666666667;"/><path d="M95.7255,132.7474 L95.7255,188.9974 M68.6422,149.4141 L122.8088,149.4141 M95.7255,188.9974 L68.6422,220.2474 M95.7255,188.9974 L122.8088,220.2474 " fill="none" style="stroke:#6C8EBF;stroke-width:1.0416666666666667;"/><text fill="#000000" font-family="sans-serif" font-size="29.1667" lengthAdjust="spacing" textLength="95.6177" x="41.6667" y="2655.9448">Wearer</text><ellipse cx="95.7255" cy="2680.0618" fill="#DAE8FC" rx="16.6667" ry="16.6667" style="stroke:#6C8EBF;stroke-width:1.0416666666666667;"/><path d="M95.7255,2696.7285 L95.7255,2752.9785 M68.6422,2713.3952 L122.8088,2713.3952 M95.7255,2752.9785 L68.6422,2784.2285 M95.7255,2752.9785 L122.8088,2784.2285 " fill="none" style="stroke:#6C8EBF;stroke-width:1.0416666666666667;"/><rect fill="#DAE8FC" height="102.5391" rx="5.2083" ry="5.2083" style="stroke:#6C8EBF;stroke-width:1.0416666666666667;" width="181.4799" x="312.0789" y="155.4362"/><text fill="#000000" font-family="sans-serif" font-size="29.1667" lengthAdjust="spacing" textLength="145.9188" x="329.8594" y="200.297">LinkScreen</text><text fill="#000000" font-family="sans-serif" font-size="29.1667" lengthAdjust="spacing" textLength="152.3132" x="326.6622" y="236.9832">(Wearer UI)</text><rect fill="#DAE8FC" height="102.5391" rx="5.2083" ry="5.2083" style="stroke:#6C8EBF;stroke-width:1.0416666666666667;" width="181.4799" x="312.0789" y="2625.6673"/><text fill="#000000" font-family="sans-serif" font-size="29.1667" lengthAdjust="spacing" textLength="145.9188" x="329.8594" y="2670.5282">LinkScreen</text><text fill="#000000" font-family="sans-serif" font-size="29.1667" lengthAdjust="spacing" textLength="152.3132" x="326.6622" y="2707.2144">(Wearer UI)</text><rect fill="#DAE8FC" height="65.8529" rx="5.2083" ry="5.2083" style="stroke:#6C8EBF;stroke-width:1.0416666666666667;" width="179.9276" x="633.609" y="192.1224"/><text fill="#000000" font-family="sans-serif" font-size="29.1667" lengthAdjust="spacing" textLength="150.7609" x="648.1923" y="236.9832">LinkService</text><rect fill="#DAE8FC" height="65.8529" rx="5.2083" ry="5.2083" style="stroke:#6C8EBF;stroke-width:1.0416666666666667;" width="179.9276" x="633.609" y="2625.6673"/><text fill="#000000" font-family="sans-serif" font-size="29.1667" lengthAdjust="spacing" textLength="150.7609" x="648.1923" y="2670.5282">LinkService</text><text fill="#000000" font-family="sans-serif" font-size="29.1667" lengthAdjust="spacing" textLength="131.3639" x="1275.707" y="216.9637">Supabase</text><text fill="#000000" font-family="sans-serif" font-size="29.1667" lengthAdjust="spacing" textLength="213.9506" x="1234.4137" y="253.6499">(caregiver_links)</text><path d="M1310.139,111.6862 C1310.139,90.8529 1347.639,90.8529 1347.639,90.8529 C1347.639,90.8529 1385.139,90.8529 1385.139,111.6862 L1385.139,165.8529 C1385.139,186.6862 1347.639,186.6862 1347.639,186.6862 C1347.639,186.6862 1310.139,186.6862 1310.139,165.8529 L1310.139,111.6862 " fill="#E2E2F0" style="stroke:#181818;stroke-width:3.125;"/><path d="M1310.139,111.6862 C1310.139,132.5195 1347.639,132.5195 1347.639,132.5195 C1347.639,132.5195 1385.139,132.5195 1385.139,111.6862 " fill="none" style="stroke:#181818;stroke-width:3.125;"/><text fill="#000000" font-family="sans-serif" font-size="29.1667" lengthAdjust="spacing" textLength="131.3639" x="1275.707" y="2655.9448">Supabase</text><text fill="#000000" font-family="sans-serif" font-size="29.1667" lengthAdjust="spacing" textLength="213.9506" x="1234.4137" y="2692.631">(caregiver_links)</text><path d="M1310.139,2719.873 C1310.139,2699.0397 1347.639,2699.0397 1347.639,2699.0397 C1347.639,2699.0397 1385.139,2699.0397 1385.139,2719.873 L1385.139,2774.0397 C1385.139,2794.873 1347.639,2794.873 1347.639,2794.873 C1347.639,2794.873 1310.139,2794.873 1310.139,2774.0397 L1310.139,2719.873 " fill="#E2E2F0" style="stroke:#181818;stroke-width:3.125;"/><path d="M1310.139,2719.873 C1310.139,2740.7064 1347.639,2740.7064 1347.639,2740.7064 C1347.639,2740.7064 1385.139,2740.7064 1385.139,2719.873 " fill="none" style="stroke:#181818;stroke-width:3.125;"/><rect fill="#DAE8FC" height="65.8529" rx="5.2083" ry="5.2083" style="stroke:#6C8EBF;stroke-width:1.0416666666666667;" width="270.7031" x="1481.6976" y="192.1224"/><text fill="#000000" font-family="sans-serif" font-size="29.1667" lengthAdjust="spacing" textLength="241.5365" x="1496.2809" y="236.9832">NotificationService</text><rect fill="#DAE8FC" height="65.8529" rx="5.2083" ry="5.2083" style="stroke:#6C8EBF;stroke-width:1.0416666666666667;" width="270.7031" x="1481.6976" y="2625.6673"/><text fill="#000000" font-family="sans-serif" font-size="29.1667" lengthAdjust="spacing" textLength="241.5365" x="1496.2809" y="2670.5282">NotificationService</text><text fill="#000000" font-family="sans-serif" font-size="29.1667" lengthAdjust="spacing" textLength="63.1755" x="2008.6029" y="253.6499">FCM</text><path d="M2003.7323,165.0391 L2003.7323,215.0391 M2003.7323,190.0391 L2039.149,190.0391 " fill="none" style="stroke:#181818;stroke-width:1.0416666666666667;"/><ellipse cx="2064.149" cy="190.0391" fill="#E2E2F0" rx="25" ry="25" style="stroke:#181818;stroke-width:1.0416666666666667;"/><text fill="#000000" font-family="sans-serif" font-size="29.1667" lengthAdjust="spacing" textLength="63.1755" x="2008.6029" y="2655.9448">FCM</text><path d="M2003.7323,2670.6868 L2003.7323,2720.6868 M2003.7323,2695.6868 L2039.149,2695.6868 " fill="none" style="stroke:#181818;stroke-width:1.0416666666666667;"/><ellipse cx="2064.149" cy="2695.6868" fill="#E2E2F0" rx="25" ry="25" style="stroke:#181818;stroke-width:1.0416666666666667;"/><rect fill="#DAE8FC" height="102.5391" rx="5.2083" ry="5.2083" style="stroke:#6C8EBF;stroke-width:1.0416666666666667;" width="226.9531" x="2280.6956" y="155.4362"/><text fill="#000000" font-family="sans-serif" font-size="29.1667" lengthAdjust="spacing" textLength="197.7865" x="2295.2789" y="200.297">CaregiverInbox</text><text fill="#000000" font-family="sans-serif" font-size="29.1667" lengthAdjust="spacing" textLength="183.1319" x="2302.6062" y="236.9832">(Caregiver UI)</text><rect fill="#DAE8FC" height="102.5391" rx="5.2083" ry="5.2083" style="stroke:#6C8EBF;stroke-width:1.0416666666666667;" width="226.9531" x="2280.6956" y="2625.6673"/><text fill="#000000" font-family="sans-serif" font-size="29.1667" lengthAdjust="spacing" textLength="197.7865" x="2295.2789" y="2670.5282">CaregiverInbox</text><text fill="#000000" font-family="sans-serif" font-size="29.1667" lengthAdjust="spacing" textLength="183.1319" x="2302.6062" y="2707.2144">(Caregiver UI)</text><text fill="#000000" font-family="sans-serif" font-size="29.1667" lengthAdjust="spacing" textLength="126.4364" x="2652.8371" y="253.6499">Caregiver</text><ellipse cx="2722.3053" cy="116.0807" fill="#DAE8FC" rx="16.6667" ry="16.6667" style="stroke:#6C8EBF;stroke-width:1.0416666666666667;"/><path d="M2722.3053,132.7474 L2722.3053,188.9974 M2695.222,149.4141 L2749.3886,149.4141 M2722.3053,188.9974 L2695.222,220.2474 M2722.3053,188.9974 L2749.3886,220.2474 " fill="none" style="stroke:#6C8EBF;stroke-width:1.0416666666666667;"/><text fill="#000000" font-family="sans-serif" font-size="29.1667" lengthAdjust="spacing" textLength="126.4364" x="2652.8371" y="2655.9448">Caregiver</text><ellipse cx="2722.3053" cy="2680.0618" fill="#DAE8FC" rx="16.6667" ry="16.6667" style="stroke:#6C8EBF;stroke-width:1.0416666666666667;"/><path d="M2722.3053,2696.7285 L2722.3053,2752.9785 M2695.222,2713.3952 L2749.3886,2713.3952 M2722.3053,2752.9785 L2695.222,2784.2285 M2722.3053,2752.9785 L2749.3886,2784.2285 " fill="none" style="stroke:#6C8EBF;stroke-width:1.0416666666666667;"/><rect fill="#EEEEEE" height="6.25" style="stroke:#EEEEEE;stroke-width:2.0833333333333335;" width="2806.0811" x="0" y="325.0081"/><line style="stroke:#000000;stroke-width:2.0833333333333335;" x1="0" x2="2806.0811" y1="325.0081" y2="325.0081"/><line style="stroke:#000000;stroke-width:2.0833333333333335;" x1="0" x2="2806.0811" y1="331.2581" y2="331.2581"/><rect fill="#EEEEEE" height="50.7324" style="stroke:#000000;stroke-width:4.166666666666667;" width="107.428" x="1349.3266" y="301.7253"/><text fill="#000000" font-family="sans-serif" font-size="27.0833" font-weight="bold" lengthAdjust="spacing" textLength="70.7367" x="1361.8266" y="338.1734">Invite</text><polygon fill="#444444" points="377.8188,411.5234,398.6521,419.8568,377.8188,428.1901,386.1521,419.8568" style="stroke:#444444;stroke-width:2.0833333333333335;"/><line style="stroke:#444444;stroke-width:2.0833333333333335;" x1="95.7255" x2="390.3188" y1="419.8568" y2="419.8568"/><text fill="#000000" font-family="sans-serif" font-size="27.0833" lengthAdjust="spacing" textLength="252.888" x="110.3088" y="409.7392">enter caregiver email</text><polygon fill="#444444" points="698.5728,474.7559,719.4061,483.0892,698.5728,491.4225,706.9061,483.0892" style="stroke:#444444;stroke-width:2.0833333333333335;"/><line style="stroke:#444444;stroke-width:2.0833333333333335;" x1="402.8188" x2="711.0728" y1="483.0892" y2="483.0892"/><text fill="#000000" font-family="sans-serif" font-size="27.0833" lengthAdjust="spacing" textLength="145.9829" x="417.4021" y="472.9716">invite(email)</text><polygon fill="#444444" points="1322.639,537.9883,1343.4723,546.3216,1322.639,554.6549,1330.9723,546.3216" style="stroke:#444444;stroke-width:2.0833333333333335;"/><line style="stroke:#444444;stroke-width:2.0833333333333335;" x1="723.5728" x2="1335.139" y1="546.3216" y2="546.3216"/><text fill="#000000" font-family="sans-serif" font-size="27.0833" lengthAdjust="spacing" textLength="412.4522" x="738.1561" y="536.204">RPC get_user_id_by_email(email)</text><polygon fill="#444444" points="746.4895,601.2207,725.6561,609.554,746.4895,617.8874,738.1561,609.554" style="stroke:#444444;stroke-width:2.0833333333333335;"/><line style="stroke:#444444;stroke-width:2.0833333333333335;stroke-dasharray:2.0,2.0;" x1="733.9895" x2="1345.5556" y1="609.554" y2="609.554"/><text fill="#000000" font-family="sans-serif" font-size="27.0833" lengthAdjust="spacing" textLength="246.8577" x="758.9895" y="599.4364">caregiver_id (or null)</text><path d="M20.8333,640.804 L146.1894,640.804 L146.1894,658.2031 L125.356,679.0365 L20.8333,679.0365 L20.8333,640.804 " fill="#EEEEEE" style="stroke:#000000;stroke-width:3.125;"/><rect fill="none" height="674.3815" style="stroke:#000000;stroke-width:3.125;" width="2507.6487" x="20.8333" y="640.804"/><text fill="#000000" font-family="sans-serif" font-size="27.0833" font-weight="bold" lengthAdjust="spacing" textLength="31.606" x="52.0833" y="671.0022">alt</text><text fill="#000000" font-family="sans-serif" font-size="22.9167" font-weight="bold" lengthAdjust="spacing" textLength="220.2932" x="177.4394" y="668.7602">[caregiver_id found]</text><polygon fill="#444444" points="1322.639,751.3346,1343.4723,759.668,1322.639,768.0013,1330.9723,759.668" style="stroke:#444444;stroke-width:2.0833333333333335;"/><line style="stroke:#444444;stroke-width:2.0833333333333335;" x1="723.5728" x2="1335.139" y1="759.668" y2="759.668"/><text fill="#000000" font-family="sans-serif" font-size="27.0833" lengthAdjust="spacing" textLength="287.4695" x="738.1561" y="715.4846">INSERT caregiver_links</text><text fill="#000000" font-family="sans-serif" font-size="27.0833" lengthAdjust="spacing" textLength="509.3994" x="738.1561" y="749.5504">(wearer_id, caregiver_id, status='pending')</text><polygon fill="#444444" points="746.4895,814.5671,725.6561,822.9004,746.4895,831.2337,738.1561,822.9004" style="stroke:#444444;stroke-width:2.0833333333333335;"/><line style="stroke:#444444;stroke-width:2.0833333333333335;stroke-dasharray:2.0,2.0;" x1="733.9895" x2="1345.5556" y1="822.9004" y2="822.9004"/><text fill="#000000" font-family="sans-serif" font-size="27.0833" lengthAdjust="spacing" textLength="76.7802" x="758.9895" y="812.7828">link_id</text><polygon fill="#444444" points="1592.0492,877.7995,1612.8825,886.1328,1592.0492,894.4661,1600.3825,886.1328" style="stroke:#444444;stroke-width:2.0833333333333335;"/><line style="stroke:#444444;stroke-width:2.0833333333333335;" x1="723.5728" x2="1604.5492" y1="886.1328" y2="886.1328"/><text fill="#000000" font-family="sans-serif" font-size="27.0833" lengthAdjust="spacing" textLength="469.6737" x="738.1561" y="876.0152">pushInvite(caregiver_id, wearer_name)</text><polygon fill="#444444" points="2021.4406,941.0319,2042.274,949.3652,2021.4406,957.6986,2029.774,949.3652" style="stroke:#444444;stroke-width:2.0833333333333335;"/><line style="stroke:#444444;stroke-width:2.0833333333333335;" x1="1617.0492" x2="2033.9406" y1="949.3652" y2="949.3652"/><text fill="#000000" font-family="sans-serif" font-size="27.0833" lengthAdjust="spacing" textLength="379.3915" x="1631.6325" y="939.2476">send(payload, caregiver_token)</text><polygon fill="#444444" points="2369.1722,1004.2643,2390.0055,1012.5977,2369.1722,1020.931,2377.5055,1012.5977" style="stroke:#444444;stroke-width:2.0833333333333335;"/><line style="stroke:#444444;stroke-width:2.0833333333333335;" x1="2046.4406" x2="2381.6722" y1="1012.5977" y2="1012.5977"/><text fill="#000000" font-family="sans-serif" font-size="27.0833" lengthAdjust="spacing" textLength="297.7315" x="2061.024" y="1002.4801">push "New care request"</text><polygon fill="#444444" points="425.7355,1067.4967,404.9021,1075.8301,425.7355,1084.1634,417.4021,1075.8301" style="stroke:#444444;stroke-width:2.0833333333333335;"/><line style="stroke:#444444;stroke-width:2.0833333333333335;stroke-dasharray:2.0,2.0;" x1="413.2355" x2="721.4895" y1="1075.8301" y2="1075.8301"/><text fill="#000000" font-family="sans-serif" font-size="27.0833" lengthAdjust="spacing" textLength="263.3087" x="438.2355" y="1065.7125">{ ok, status:'pending' }</text><polygon fill="#444444" points="118.6422,1130.7292,97.8088,1139.0625,118.6422,1147.3958,110.3088,1139.0625" style="stroke:#444444;stroke-width:2.0833333333333335;"/><line style="stroke:#444444;stroke-width:2.0833333333333335;" x1="106.1422" x2="400.7355" y1="1139.0625" y2="1139.0625"/><text fill="#000000" font-family="sans-serif" font-size="27.0833" lengthAdjust="spacing" textLength="257.0933" x="131.1422" y="1128.9449">show "Invitation sent"</text><line style="stroke:#000000;stroke-width:2.0833333333333335;stroke-dasharray:2.0,2.0;" x1="20.8333" x2="2528.4821" y1="1157.8125" y2="1157.8125"/><text fill="#000000" font-family="sans-serif" font-size="22.9167" font-weight="bold" lengthAdjust="spacing" textLength="233.0383" x="31.25" y="1181.602">[email not registered]</text><polygon fill="#444444" points="425.7355,1226.9531,404.9021,1235.2865,425.7355,1243.6198,417.4021,1235.2865" style="stroke:#444444;stroke-width:2.0833333333333335;"/><line style="stroke:#444444;stroke-width:2.0833333333333335;stroke-dasharray:2.0,2.0;" x1="413.2355" x2="721.4895" y1="1235.2865" y2="1235.2865"/><text fill="#000000" font-family="sans-serif" font-size="27.0833" lengthAdjust="spacing" textLength="270.754" x="438.2355" y="1225.1689">error('email not found')</text><polygon fill="#444444" points="118.6422,1290.1855,97.8088,1298.5189,118.6422,1306.8522,110.3088,1298.5189" style="stroke:#444444;stroke-width:2.0833333333333335;"/><line style="stroke:#444444;stroke-width:2.0833333333333335;" x1="106.1422" x2="400.7355" y1="1298.5189" y2="1298.5189"/><text fill="#000000" font-family="sans-serif" font-size="27.0833" lengthAdjust="spacing" textLength="127.9317" x="131.1422" y="1288.4013">show error</text><rect fill="#EEEEEE" height="6.25" style="stroke:#EEEEEE;stroke-width:2.0833333333333335;" width="2806.0811" x="0" y="1373.8851"/><line style="stroke:#000000;stroke-width:2.0833333333333335;" x1="0" x2="2806.0811" y1="1373.8851" y2="1373.8851"/><line style="stroke:#000000;stroke-width:2.0833333333333335;" x1="0" x2="2806.0811" y1="1380.1351" y2="1380.1351"/><rect fill="#EEEEEE" height="50.7324" style="stroke:#000000;stroke-width:4.166666666666667;" width="126.9999" x="1339.5406" y="1350.6022"/><text fill="#000000" font-family="sans-serif" font-size="27.0833" font-weight="bold" lengthAdjust="spacing" textLength="90.3086" x="1352.0406" y="1387.0504">Accept</text><polygon fill="#444444" points="2417.0888,1460.4004,2396.2555,1468.7337,2417.0888,1477.0671,2408.7555,1468.7337" style="stroke:#444444;stroke-width:2.0833333333333335;"/><line style="stroke:#444444;stroke-width:2.0833333333333335;" x1="2404.5888" x2="2720.222" y1="1468.7337" y2="1468.7337"/><text fill="#000000" font-family="sans-serif" font-size="27.0833" lengthAdjust="spacing" textLength="132.5205" x="2429.5888" y="1458.6161">open inbox</text><polygon fill="#444444" points="1370.5556,1523.6328,1349.7223,1531.9661,1370.5556,1540.2995,1362.2223,1531.9661" style="stroke:#444444;stroke-width:2.0833333333333335;"/><line style="stroke:#444444;stroke-width:2.0833333333333335;" x1="1358.0556" x2="2392.0888" y1="1531.9661" y2="1531.9661"/><text fill="#000000" font-family="sans-serif" font-size="27.0833" lengthAdjust="spacing" textLength="587.8062" x="1383.0556" y="1521.8486">SELECT pending links WHERE caregiver_id=me</text><polygon fill="#444444" points="2369.1722,1586.8652,2390.0055,1595.1986,2369.1722,1603.5319,2377.5055,1595.1986" style="stroke:#444444;stroke-width:2.0833333333333335;"/><line style="stroke:#444444;stroke-width:2.0833333333333335;stroke-dasharray:2.0,2.0;" x1="1347.639" x2="2381.6722" y1="1595.1986" y2="1595.1986"/><text fill="#000000" font-family="sans-serif" font-size="27.0833" lengthAdjust="spacing" textLength="135.4431" x="1362.2223" y="1585.081">[ link rows ]</text><polygon fill="#444444" points="2697.3053,1650.0977,2718.1386,1658.431,2697.3053,1666.7643,2705.6386,1658.431" style="stroke:#444444;stroke-width:2.0833333333333335;"/><line style="stroke:#444444;stroke-width:2.0833333333333335;" x1="2394.1722" x2="2709.8053" y1="1658.431" y2="1658.431"/><text fill="#000000" font-family="sans-serif" font-size="27.0833" lengthAdjust="spacing" textLength="221.3084" x="2408.7555" y="1648.3134">list pending invites</text><polygon fill="#444444" points="2417.0888,1713.3301,2396.2555,1721.6634,2417.0888,1729.9967,2408.7555,1721.6634" style="stroke:#444444;stroke-width:2.0833333333333335;"/><line style="stroke:#444444;stroke-width:2.0833333333333335;" x1="2404.5888" x2="2720.222" y1="1721.6634" y2="1721.6634"/><text fill="#000000" font-family="sans-serif" font-size="27.0833" lengthAdjust="spacing" textLength="147.1995" x="2429.5888" y="1711.5458">tap "Accept"</text><polygon fill="#444444" points="746.4895,1776.5625,725.6561,1784.8958,746.4895,1793.2292,738.1561,1784.8958" style="stroke:#444444;stroke-width:2.0833333333333335;"/><line style="stroke:#444444;stroke-width:2.0833333333333335;" x1="733.9895" x2="2392.0888" y1="1784.8958" y2="1784.8958"/><text fill="#000000" font-family="sans-serif" font-size="27.0833" lengthAdjust="spacing" textLength="174.6134" x="758.9895" y="1774.7782">accept(link_id)</text><polygon fill="#444444" points="1322.639,1839.7949,1343.4723,1848.1283,1322.639,1856.4616,1330.9723,1848.1283" style="stroke:#444444;stroke-width:2.0833333333333335;"/><line style="stroke:#444444;stroke-width:2.0833333333333335;" x1="723.5728" x2="1335.139" y1="1848.1283" y2="1848.1283"/><text fill="#000000" font-family="sans-serif" font-size="27.0833" lengthAdjust="spacing" textLength="574.0662" x="738.1561" y="1838.0107">UPDATE caregiver_links SET status='accepted'</text><polygon fill="#444444" points="746.4895,1903.0273,725.6561,1911.3607,746.4895,1919.694,738.1561,1911.3607" style="stroke:#444444;stroke-width:2.0833333333333335;"/><line style="stroke:#444444;stroke-width:2.0833333333333335;stroke-dasharray:2.0,2.0;" x1="733.9895" x2="1345.5556" y1="1911.3607" y2="1911.3607"/><text fill="#000000" font-family="sans-serif" font-size="27.0833" lengthAdjust="spacing" textLength="28.6041" x="758.9895" y="1901.2431">ok</text><polygon fill="#444444" points="1592.0492,1966.2598,1612.8825,1974.5931,1592.0492,1982.9264,1600.3825,1974.5931" style="stroke:#444444;stroke-width:2.0833333333333335;"/><line style="stroke:#444444;stroke-width:2.0833333333333335;" x1="723.5728" x2="1604.5492" y1="1974.5931" y2="1974.5931"/><text fill="#000000" font-family="sans-serif" font-size="27.0833" lengthAdjust="spacing" textLength="425.7955" x="738.1561" y="1964.4755">notifyWearer(wearer_id, 'accepted')</text><polygon fill="#444444" points="2021.4406,2029.4922,2042.274,2037.8255,2021.4406,2046.1589,2029.774,2037.8255" style="stroke:#444444;stroke-width:2.0833333333333335;"/><line style="stroke:#444444;stroke-width:2.0833333333333335;" x1="1617.0492" x2="2033.9406" y1="2037.8255" y2="2037.8255"/><text fill="#000000" font-family="sans-serif" font-size="27.0833" lengthAdjust="spacing" textLength="350.7874" x="1631.6325" y="2027.7079">send(payload, wearer_token)</text><polygon fill="#444444" points="425.7355,2092.7246,404.9021,2101.0579,425.7355,2109.3913,417.4021,2101.0579" style="stroke:#444444;stroke-width:2.0833333333333335;"/><line style="stroke:#444444;stroke-width:2.0833333333333335;" x1="413.2355" x2="2044.3573" y1="2101.0579" y2="2101.0579"/><text fill="#000000" font-family="sans-serif" font-size="27.0833" lengthAdjust="spacing" textLength="320.3318" x="438.2355" y="2090.9403">push "Caregiver accepted"</text><polygon fill="#888888" points="425.7355,2155.957,404.9021,2164.2904,425.7355,2172.6237,417.4021,2164.2904" style="stroke:#888888;stroke-width:2.0833333333333335;"/><line style="stroke:#888888;stroke-width:2.0833333333333335;stroke-dasharray:2.0,2.0;" x1="413.2355" x2="1345.5556" y1="2164.2904" y2="2164.2904"/><text fill="#000000" font-family="sans-serif" font-size="27.0833" lengthAdjust="spacing" textLength="309.3689" x="438.2355" y="2154.1728">realtime: status=accepted</text><polygon fill="#888888" points="2369.1722,2219.1895,2390.0055,2227.5228,2369.1722,2235.8561,2377.5055,2227.5228" style="stroke:#888888;stroke-width:2.0833333333333335;"/><line style="stroke:#888888;stroke-width:2.0833333333333335;stroke-dasharray:2.0,2.0;" x1="1347.639" x2="2381.6722" y1="2227.5228" y2="2227.5228"/><text fill="#000000" font-family="sans-serif" font-size="27.0833" lengthAdjust="spacing" textLength="309.3689" x="1362.2223" y="2217.4052">realtime: status=accepted</text><polygon fill="#444444" points="118.6422,2282.4219,97.8088,2290.7552,118.6422,2299.0885,110.3088,2290.7552" style="stroke:#444444;stroke-width:2.0833333333333335;"/><line style="stroke:#444444;stroke-width:2.0833333333333335;" x1="106.1422" x2="400.7355" y1="2290.7552" y2="2290.7552"/><text fill="#000000" font-family="sans-serif" font-size="27.0833" lengthAdjust="spacing" textLength="169.7866" x="131.1422" y="2280.6376">show "Linked"</text><polygon fill="#444444" points="2697.3053,2345.6543,2718.1386,2353.9876,2697.3053,2362.321,2705.6386,2353.9876" style="stroke:#444444;stroke-width:2.0833333333333335;"/><line style="stroke:#444444;stroke-width:2.0833333333333335;" x1="2394.1722" x2="2709.8053" y1="2353.9876" y2="2353.9876"/><text fill="#000000" font-family="sans-serif" font-size="27.0833" lengthAdjust="spacing" textLength="278.1331" x="2408.7555" y="2343.87">show "Now monitoring"</text><rect fill="#EEEEEE" height="6.25" style="stroke:#EEEEEE;stroke-width:2.0833333333333335;" width="2806.0811" x="0" y="2414.7705"/><line style="stroke:#000000;stroke-width:2.0833333333333335;" x1="0" x2="2806.0811" y1="2414.7705" y2="2414.7705"/><line style="stroke:#000000;stroke-width:2.0833333333333335;" x1="0" x2="2806.0811" y1="2421.0205" y2="2421.0205"/><rect fill="#EEEEEE" height="50.7324" style="stroke:#000000;stroke-width:4.166666666666667;" width="294.0755" x="1256.0028" y="2391.4876"/><text fill="#000000" font-family="sans-serif" font-size="27.0833" font-weight="bold" lengthAdjust="spacing" textLength="257.3842" x="1268.5028" y="2427.9358">Decline (alternative)</text><path d="M647.9167,2473.4701 L647.9167,2596.3867 L2793.75,2596.3867 L2793.75,2494.3034 L2772.9167,2473.4701 L647.9167,2473.4701 " fill="#FEFFDD" style="stroke:#181818;stroke-width:1.0416666666666667;"/><path d="M2772.9167,2473.4701 L2772.9167,2494.3034 L2793.75,2494.3034 L2772.9167,2473.4701 " fill="#FEFFDD" style="stroke:#181818;stroke-width:1.0416666666666667;"/><text fill="#000000" font-family="sans-serif" font-size="27.0833" lengthAdjust="spacing" textLength="440.7257" x="1370.0521" y="2512.0015">Caregiver may instead tap "Decline":</text><text fill="#000000" font-family="sans-serif" font-size="27.0833" lengthAdjust="spacing" textLength="684.727" x="1370.0521" y="2546.0673">LinkService.decline(link_id) -&gt; UPDATE status='declined'</text><text fill="#000000" font-family="sans-serif" font-size="27.0833" lengthAdjust="spacing" textLength="453.8442" x="1370.0521" y="2580.1331">Wearer is notified via push + realtime.</text><!--SRC=[XLJRQYCv47tNLnGz3scpoJ0imn02Nh3R7TQG3I5EoCDiC79tnH6sfLv9jiU4-VSjNVhcE3CEn8dgrAdBEP8LTeqmm_-sA0k4YU1BpJTm0HdNk1Gxr70Zv4h89QHJkHCMuU8l61K5LdR030KgxXBCAo_Lti5U-DfW9r9M0lxyygLpik35QgdLLfQPMYiDdwvpzzDbg_jvOq2VaTPg7x5V_SSVtuWNfEPmh7I9EiQ_PPVv-Dh7xxYseX0LbtPyN78ooY-litUm3vX6XLNwLnm1y47sMFteXIxzX_raZBiqU4BQjMPLsmSaRkcpGYFAVsKQ0F0u7IJ03JpD7wSdqAXtea2FSF-pabk-u0OXcMqh_nTH5RMiypLXJ22SZFjqjygA5r5mAvJiqlfpjd0huFe0oNNsZp-dxpv1OvwfNAWVLBPrKpr4veO8ypT1neP3Y2uR3baSc_pc9eOhG6df_sO4m0qNQ-Q317934qZu_DJ71imVKd0ofj3zNGPBjFEjeVb5ELySvXvMWmbqqHArgn8bfDIdtAu9nFZQzcClRY7HaPrgqzjPVly0HnkdPUpzN9HvtkCv1sEvtPhXMOMofAjqDl2a_QuS2O5xvRmk5AksvZMiB-qJnugIRp1mXWnA9UaeqL31jEA7jUAzfgnQeGmP3aZuB2ZXAf5FSE_1eDrzDJRfTDMgzWPgLSzsrSm6Fpsu5YzgJQsygZqaVWhlFzSR4ICzAa5laCg2Qz2G6R0yMHBfmT3fMOlt4iLzdYxfKnWrvqqO7ZXdmjQvxVIAXY2VaRLP5icyuhFy9iyU88xefQBR-dT-d_U47cwmjbea_EwnGA-SWUU6iotjP3Us8GuMD-naSvPNa8J-auOgceVxupHwwEXsFDvDHW_viLzfg8V6c24VoxEZgw9MZ1sRKRhlGrXor_8joO3zqeOn9tem-k-fwxzs_9epORwpx_6DVMupDDAz5HkygeUfKzubPBzBO1-Orct0jN1Alu2ufLyR9GMzUgHZugqsmO8MZP1IETIIJB_3WNCUBH11kVI6w3oyxD2Xtl03-O7k0Y-3z94lkMBXNiG7_7CPpXlnNOTHybhU225vePvDc22am19sWeV5_z4ivxExCGw1x7y0]--></g></svg>