<svg xmlns="http://www.w3.org/2000/svg" xmlns:xlink="http://www.w3.org/1999/xlink" contentStyleType="text/css" height="2556.25px" preserveAspectRatio="none" style="width:4108px;height:2556px;background:#FEFEFE;" version="1.1" viewBox="0 0 4108 2556" width="4108.3333px" zoomAndPan="magnify"><title>Sequence Diagram - Fall Detection -&gt; Caregiver Alert</title><defs/><g><rect fill="#FEFEFE" height="2556.25" style="stroke:none;stroke-width:2.0833333333333335;" width="4108.3333" x="0" y="0"/><text fill="#000000" font-family="sans-serif" font-size="29.1667" font-weight="bold" lengthAdjust="spacing" textLength="731.8298" x="1680.0374" y="61.5275">Sequence Diagram - Fall Detection -&gt; Caregiver Alert</text><rect fill="none" height="1174.2676" style="stroke:#000000;stroke-width:3.125;" width="3658.5866" x="414.5681" y="1139.681"/><rect fill="none" height="920.3288" style="stroke:#000000;stroke-width:3.125;" width="3616.92" x="435.4014" y="1255.7292"/><line style="stroke:#6C8EBF;stroke-width:1.0416666666666667;stroke-dasharray:5.0,5.0;" x1="127.0833" x2="127.0833" y1="289.2253" y2="2349.3652"/><line style="stroke:#6C8EBF;stroke-width:1.0416666666666667;stroke-dasharray:5.0,5.0;" x1="585.4014" x2="585.4014" y1="289.2253" y2="2349.3652"/><line style="stroke:#6C8EBF;stroke-width:1.0416666666666667;stroke-dasharray:5.0,5.0;" x1="1066.4398" x2="1066.4398" y1="289.2253" y2="2349.3652"/><line style="stroke:#6C8EBF;stroke-width:1.0416666666666667;stroke-dasharray:5.0,5.0;" x1="1435.1461" x2="1435.1461" y1="289.2253" y2="2349.3652"/><line style="stroke:#6C8EBF;stroke-width:1.0416666666666667;stroke-dasharray:5.0,5.0;" x1="1728.2776" x2="1728.2776" y1="289.2253" y2="2349.3652"/><line style="stroke:#6C8EBF;stroke-width:1.0416666666666667;stroke-dasharray:5.0,5.0;" x1="2284.4584" x2="2284.4584" y1="289.2253" y2="2349.3652"/><line style="stroke:#6C8EBF;stroke-width:1.0416666666666667;stroke-dasharray:5.0,5.0;" x1="2502.36" x2="2502.36" y1="289.2253" y2="2349.3652"/><line style="stroke:#6C8EBF;stroke-width:1.0416666666666667;stroke-dasharray:5.0,5.0;" x1="2776.239" x2="2776.239" y1="289.2253" y2="2349.3652"/><line style="stroke:#6C8EBF;stroke-width:1.0416666666666667;stroke-dasharray:5.0,5.0;" x1="3019.5862" x2="3019.5862" y1="289.2253" y2="2349.3652"/><line style="stroke:#6C8EBF;stroke-width:1.0416666666666667;stroke-dasharray:5.0,5.0;" x1="3449.9542" x2="3449.9542" y1="289.2253" y2="2349.3652"/><line style="stroke:#6C8EBF;stroke-width:1.0416666666666667;stroke-dasharray:5.0,5.0;" x1="3694.7103" x2="3694.7103" y1="289.2253" y2="2349.3652"/><line style="stroke:#6C8EBF;stroke-width:1.0416666666666667;stroke-dasharray:5.0,5.0;" x1="3961.3017" x2="3961.3017" y1="289.2253" y2="2349.3652"/><text fill="#000000" font-family="sans-serif" font-size="29.1667" lengthAdjust="spacing" textLength="153.9795" x="44.8527" y="246.1304">Smartwatch</text><text fill="#000000" font-family="sans-serif" font-size="29.1667" lengthAdjust="spacing" textLength="222.8516" x="10.4167" y="282.8166">(IMU+barometer)</text><ellipse cx="128.0924" cy="108.5612" fill="#DAE8FC" rx="16.6667" ry="16.6667" style="stroke:#6C8EBF;stroke-width:1.0416666666666667;"/><path d="M128.0924,125.2279 L128.0924,181.4779 M101.0091,141.8945 L155.1758,141.8945 M128.0924,181.4779 L101.0091,212.7279 M128.0924,181.4779 L155.1758,212.7279 " fill="none" style="stroke:#6C8EBF;stroke-width:1.0416666666666667;"/><text fill="#000000" font-family="sans-serif" font-size="29.1667" lengthAdjust="spacing" textLength="153.9795" x="44.8527" y="2377.5594">Smartwatch</text><text fill="#000000" font-family="sans-serif" font-size="29.1667" lengthAdjust="spacing" textLength="222.8516" x="10.4167" y="2414.2456">(IMU+barometer)</text><ellipse cx="128.0924" cy="2438.3626" fill="#DAE8FC" rx="16.6667" ry="16.6667" style="stroke:#6C8EBF;stroke-width:1.0416666666666667;"/><path d="M128.0924,2455.0293 L128.0924,2511.2793 M101.0091,2471.696 L155.1758,2471.696 M128.0924,2511.2793 L101.0091,2542.5293 M128.0924,2511.2793 L155.1758,2542.5293 " fill="none" style="stroke:#6C8EBF;stroke-width:1.0416666666666667;"/><rect fill="#DAE8FC" height="102.5391" rx="5.2083" ry="5.2083" style="stroke:#6C8EBF;stroke-width:1.0416666666666667;" width="260.9762" x="456.2347" y="184.6029"/><text fill="#000000" font-family="sans-serif" font-size="29.1667" lengthAdjust="spacing" textLength="231.8095" x="470.8181" y="229.4637">WatchAppService</text><text fill="#000000" font-family="sans-serif" font-size="29.1667" lengthAdjust="spacing" textLength="189.6545" x="491.8955" y="266.1499">(sensor buffer)</text><rect fill="#DAE8FC" height="102.5391" rx="5.2083" ry="5.2083" style="stroke:#6C8EBF;stroke-width:1.0416666666666667;" width="260.9762" x="456.2347" y="2347.2819"/><text fill="#000000" font-family="sans-serif" font-size="29.1667" lengthAdjust="spacing" textLength="231.8095" x="470.8181" y="2392.1427">WatchAppService</text><text fill="#000000" font-family="sans-serif" font-size="29.1667" lengthAdjust="spacing" textLength="189.6545" x="491.8955" y="2428.8289">(sensor buffer)</text><rect fill="#DAE8FC" height="65.8529" rx="5.2083" ry="5.2083" style="stroke:#6C8EBF;stroke-width:1.0416666666666667;" width="153.9795" x="991.4398" y="221.2891"/><text fill="#000000" font-family="sans-serif" font-size="29.1667" lengthAdjust="spacing" textLength="124.8128" x="1006.0232" y="266.1499">AIService</text><rect fill="#DAE8FC" height="65.8529" rx="5.2083" ry="5.2083" style="stroke:#6C8EBF;stroke-width:1.0416666666666667;" width="153.9795" x="991.4398" y="2347.2819"/><text fill="#000000" font-family="sans-serif" font-size="29.1667" lengthAdjust="spacing" textLength="124.8128" x="1006.0232" y="2392.1427">AIService</text><rect fill="#DAE8FC" height="65.8529" rx="5.2083" ry="5.2083" style="stroke:#6C8EBF;stroke-width:1.0416666666666667;" width="243.1315" x="1314.3127" y="221.2891"/><text fill="#000000" font-family="sans-serif" font-size="29.1667" lengthAdjust="spacing" textLength="213.9648" x="1328.8961" y="266.1499">AIModelRegistry</text><rect fill="#DAE8FC" height="65.8529" rx="5.2083" ry="5.2083" style="stroke:#6C8EBF;stroke-width:1.0416666666666667;" width="243.1315" x="1314.3127" y="2347.2819"/><text fill="#000000" font-family="sans-serif" font-size="29.1667" lengthAdjust="spacing" textLength="213.9648" x="1328.8961" y="2392.1427">AIModelRegistry</text><rect fill="#DAE8FC" height="102.5391" rx="5.2083" ry="5.2083" style="stroke:#6C8EBF;stroke-width:1.0416666666666667;" width="301.5361" x="1578.2776" y="184.6029"/><text fill="#000000" font-family="sans-serif" font-size="29.1667" lengthAdjust="spacing" textLength="272.3694" x="1592.8609" y="229.4637">FallDetectionAdapter</text><text fill="#000000" font-family="sans-serif" font-size="29.1667" lengthAdjust="spacing" textLength="152.356" x="1652.8676" y="266.1499">(FusionNet)</text><rect fill="#DAE8FC" height="102.5391" rx="5.2083" ry="5.2083" style="stroke:#6C8EBF;stroke-width:1.0416666666666667;" width="301.5361" x="1578.2776" y="2347.2819"/><text fill="#000000" font-family="sans-serif" font-size="29.1667" lengthAdjust="spacing" textLength="272.3694" x="1592.8609" y="2392.1427">FallDetectionAdapter</text><text fill="#000000" font-family="sans-serif" font-size="29.1667" lengthAdjust="spacing" textLength="152.356" x="1652.8676" y="2428.8289">(FusionNet)</text><rect fill="#DAE8FC" height="65.8529" rx="5.2083" ry="5.2083" style="stroke:#6C8EBF;stroke-width:1.0416666666666667;" width="207.4849" x="2182.3751" y="221.2891"/><text fill="#000000" font-family="sans-serif" font-size="29.1667" lengthAdjust="spacing" textLength="178.3183" x="2196.9584" y="266.1499">OnnxRuntime</text><rect fill="#DAE8FC" height="65.8529" rx="5.2083" ry="5.2083" style="stroke:#6C8EBF;stroke-width:1.0416666666666667;" width="207.4849" x="2182.3751" y="2347.2819"/><text fill="#000000" font-family="sans-serif" font-size="29.1667" lengthAdjust="spacing" textLength="178.3183" x="2196.9584" y="2392.1427">OnnxRuntime</text><rect fill="#DAE8FC" height="65.8529" rx="5.2083" ry="5.2083" style="stroke:#6C8EBF;stroke-width:1.0416666666666667;" width="186.3932" x="2410.6934" y="221.2891"/><text fill="#000000" font-family="sans-serif" font-size="29.1667" lengthAdjust="spacing" textLength="157.2266" x="2425.2767" y="266.1499">AlertService</text><rect fill="#DAE8FC" height="65.8529" rx="5.2083" ry="5.2083" style="stroke:#6C8EBF;stroke-width:1.0416666666666667;" width="186.3932" x="2410.6934" y="2347.2819"/><text fill="#000000" font-family="sans-serif" font-size="29.1667" lengthAdjust="spacing" textLength="157.2266" x="2425.2767" y="2392.1427">AlertService</text><text fill="#000000" font-family="sans-serif" font-size="29.1667" lengthAdjust="spacing" textLength="131.3639" x="2706.189" y="246.1304">Supabase</text><text fill="#000000" font-family="sans-serif" font-size="29.1667" lengthAdjust="spacing" textLength="162.0972" x="2690.8223" y="282.8166">(alerts table)</text><path d="M2740.6209,140.8529 C2740.6209,120.0195 2778.1209,120.0195 2778.1209,120.0195 C2778.1209,120.0195 2815.6209,120.0195 2815.6209,140.8529 L2815.6209,195.0195 C2815.6209,215.8529 2778.1209,215.8529 2778.1209,215.8529 C2778.1209,215.8529 2740.6209,215.8529 2740.6209,195.0195 L2740.6209,140.8529 " fill="#E2E2F0" style="stroke:#181818;stroke-width:3.125;"/><path d="M2740.6209,140.8529 C2740.6209,161.6862 2778.1209,161.6862 2778.1209,161.6862 C2778.1209,161.6862 2815.6209,161.6862 2815.6209,140.8529 " fill="none" style="stroke:#181818;stroke-width:3.125;"/><text fill="#000000" font-family="sans-serif" font-size="29.1667" lengthAdjust="spacing" textLength="131.3639" x="2706.189" y="2377.5594">Supabase</text><text fill="#000000" font-family="sans-serif" font-size="29.1667" lengthAdjust="spacing" textLength="162.0972" x="2690.8223" y="2414.2456">(alerts table)</text><path d="M2740.6209,2441.4876 C2740.6209,2420.6543 2778.1209,2420.6543 2778.1209,2420.6543 C2778.1209,2420.6543 2815.6209,2420.6543 2815.6209,2441.4876 L2815.6209,2495.6543 C2815.6209,2516.4876 2778.1209,2516.4876 2778.1209,2516.4876 C2778.1209,2516.4876 2740.6209,2516.4876 2740.6209,2495.6543 L2740.6209,2441.4876 " fill="#E2E2F0" style="stroke:#181818;stroke-width:3.125;"/><path d="M2740.6209,2441.4876 C2740.6209,2462.321 2778.1209,2462.321 2778.1209,2462.321 C2778.1209,2462.321 2815.6209,2462.321 2815.6209,2441.4876 " fill="none" style="stroke:#181818;stroke-width:3.125;"/><rect fill="#DAE8FC" height="65.8529" rx="5.2083" ry="5.2083" style="stroke:#6C8EBF;stroke-width:1.0416666666666667;" width="270.7031" x="2886.2528" y="221.2891"/><text fill="#000000" font-family="sans-serif" font-size="29.1667" lengthAdjust="spacing" textLength="241.5365" x="2900.8362" y="266.1499">NotificationService</text><rect fill="#DAE8FC" height="65.8529" rx="5.2083" ry="5.2083" style="stroke:#6C8EBF;stroke-width:1.0416666666666667;" width="270.7031" x="2886.2528" y="2347.2819"/><text fill="#000000" font-family="sans-serif" font-size="29.1667" lengthAdjust="spacing" textLength="241.5365" x="2900.8362" y="2392.1427">NotificationService</text><text fill="#000000" font-family="sans-serif" font-size="29.1667" lengthAdjust="spacing" textLength="63.1755" x="3413.1582" y="282.8166">FCM</text><path d="M3408.2876,194.2057 L3408.2876,244.2057 M3408.2876,219.2057 L3443.7042,219.2057 " fill="none" style="stroke:#181818;stroke-width:1.0416666666666667;"/><ellipse cx="3468.7042" cy="219.2057" fill="#E2E2F0" rx="25" ry="25" style="stroke:#181818;stroke-width:1.0416666666666667;"/><text fill="#000000" font-family="sans-serif" font-size="29.1667" lengthAdjust="spacing" textLength="63.1755" x="3413.1582" y="2377.5594">FCM</text><path d="M3408.2876,2392.3014 L3408.2876,2442.3014 M3408.2876,2417.3014 L3443.7042,2417.3014 " fill="none" style="stroke:#181818;stroke-width:1.0416666666666667;"/><ellipse cx="3468.7042" cy="2417.3014" fill="#E2E2F0" rx="25" ry="25" style="stroke:#181818;stroke-width:1.0416666666666667;"/><rect fill="#DAE8FC" height="65.8529" rx="5.2083" ry="5.2083" style="stroke:#6C8EBF;stroke-width:1.0416666666666667;" width="212.3698" x="3590.5436" y="221.2891"/><text fill="#000000" font-family="sans-serif" font-size="29.1667" lengthAdjust="spacing" textLength="183.2031" x="3605.127" y="266.1499">Caregiver app</text><rect fill="#DAE8FC" height="65.8529" rx="5.2083" ry="5.2083" style="stroke:#6C8EBF;stroke-width:1.0416666666666667;" width="212.3698" x="3590.5436" y="2347.2819"/><text fill="#000000" font-family="sans-serif" font-size="29.1667" lengthAdjust="spacing" textLength="183.2031" x="3605.127" y="2392.1427">Caregiver app</text><text fill="#000000" font-family="sans-serif" font-size="29.1667" lengthAdjust="spacing" textLength="126.4364" x="3892.5517" y="282.8166">Caregiver</text><ellipse cx="3962.0199" cy="145.2474" fill="#DAE8FC" rx="16.6667" ry="16.6667" style="stroke:#6C8EBF;stroke-width:1.0416666666666667;"/><path d="M3962.0199,161.9141 L3962.0199,218.1641 M3934.9365,178.5807 L3989.1032,178.5807 M3962.0199,218.1641 L3934.9365,249.4141 M3962.0199,218.1641 L3989.1032,249.4141 " fill="none" style="stroke:#6C8EBF;stroke-width:1.0416666666666667;"/><text fill="#000000" font-family="sans-serif" font-size="29.1667" lengthAdjust="spacing" textLength="126.4364" x="3892.5517" y="2377.5594">Caregiver</text><ellipse cx="3962.0199" cy="2401.6764" fill="#DAE8FC" rx="16.6667" ry="16.6667" style="stroke:#6C8EBF;stroke-width:1.0416666666666667;"/><path d="M3962.0199,2418.3431 L3962.0199,2474.5931 M3934.9365,2435.0098 L3989.1032,2435.0098 M3962.0199,2474.5931 L3934.9365,2505.8431 M3962.0199,2474.5931 L3989.1032,2505.8431 " fill="none" style="stroke:#6C8EBF;stroke-width:1.0416666666666667;"/><rect fill="#EEEEEE" height="6.25" style="stroke:#EEEEEE;stroke-width:2.0833333333333335;" width="4093.988" x="0" y="354.1748"/><line style="stroke:#000000;stroke-width:2.0833333333333335;" x1="0" x2="4093.988" y1="354.1748" y2="354.1748"/><line style="stroke:#000000;stroke-width:2.0833333333333335;" x1="0" x2="4093.988" y1="360.4248" y2="360.4248"/><rect fill="#EEEEEE" height="50.7324" style="stroke:#000000;stroke-width:4.166666666666667;" width="313.5284" x="1890.2298" y="330.8919"/><text fill="#000000" font-family="sans-serif" font-size="27.0833" font-weight="bold" lengthAdjust="spacing" textLength="276.8372" x="1902.7298" y="367.3401">Continuous sampling</text><polygon fill="#444444" points="561.7228,440.6901,582.5562,449.0234,561.7228,457.3568,570.0562,449.0234" style="stroke:#444444;stroke-width:2.0833333333333335;"/><line style="stroke:#444444;stroke-width:2.0833333333333335;" x1="128.0924" x2="574.2228" y1="449.0234" y2="449.0234"/><text fill="#000000" font-family="sans-serif" font-size="27.0833" lengthAdjust="spacing" textLength="408.6304" x="142.6758" y="438.9058">IMU + barometer samples (50 Hz)</text><line style="stroke:#444444;stroke-width:2.0833333333333335;" x1="586.7228" x2="674.2228" y1="546.3216" y2="546.3216"/><line style="stroke:#444444;stroke-width:2.0833333333333335;" x1="674.2228" x2="674.2228" y1="546.3216" y2="573.4049"/><line style="stroke:#444444;stroke-width:2.0833333333333335;" x1="588.8062" x2="674.2228" y1="573.4049" y2="573.4049"/><polygon fill="#444444" points="609.6395,565.0716,588.8062,573.4049,609.6395,581.7383,601.3062,573.4049" style="stroke:#444444;stroke-width:2.0833333333333335;"/><text fill="#000000" font-family="sans-serif" font-size="27.0833" lengthAdjust="spacing" textLength="203.2308" x="601.3062" y="502.1383">buffer 2s window</text><text fill="#000000" font-family="sans-serif" font-size="27.0833" lengthAdjust="spacing" textLength="171.5983" x="601.3062" y="536.204">(100 samples)</text><rect fill="#EEEEEE" height="6.25" style="stroke:#EEEEEE;stroke-width:2.0833333333333335;" width="4093.988" x="0" y="634.1878"/><line style="stroke:#000000;stroke-width:2.0833333333333335;" x1="0" x2="4093.988" y1="634.1878" y2="634.1878"/><line style="stroke:#000000;stroke-width:2.0833333333333335;" x1="0" x2="4093.988" y1="640.4378" y2="640.4378"/><rect fill="#EEEEEE" height="50.7324" style="stroke:#000000;stroke-width:4.166666666666667;" width="157.1116" x="1968.4382" y="610.9049"/><text fill="#000000" font-family="sans-serif" font-size="27.0833" font-weight="bold" lengthAdjust="spacing" textLength="120.4203" x="1980.9382" y="647.3531">Inference</text><polygon fill="#444444" points="1043.4296,720.7031,1064.2629,729.0365,1043.4296,737.3698,1051.7629,729.0365" style="stroke:#444444;stroke-width:2.0833333333333335;"/><line style="stroke:#444444;stroke-width:2.0833333333333335;" x1="586.7228" x2="1055.9296" y1="729.0365" y2="729.0365"/><text fill="#000000" font-family="sans-serif" font-size="27.0833" lengthAdjust="spacing" textLength="385.3292" x="601.3062" y="718.9189">processSensorWindow(window)</text><polygon fill="#444444" points="1410.8785,783.9355,1431.7118,792.2689,1410.8785,800.6022,1419.2118,792.2689" style="stroke:#444444;stroke-width:2.0833333333333335;"/><line style="stroke:#444444;stroke-width:2.0833333333333335;" x1="1068.4296" x2="1423.3785" y1="792.2689" y2="792.2689"/><text fill="#000000" font-family="sans-serif" font-size="27.0833" lengthAdjust="spacing" textLength="317.4489" x="1083.0129" y="782.1513">getByType('fall_detection')</text><polygon fill="#444444" points="1091.3462,847.168,1070.5129,855.5013,1091.3462,863.8346,1083.0129,855.5013" style="stroke:#444444;stroke-width:2.0833333333333335;"/><line style="stroke:#444444;stroke-width:2.0833333333333335;stroke-dasharray:2.0,2.0;" x1="1078.8462" x2="1433.7952" y1="855.5013" y2="855.5013"/><text fill="#000000" font-family="sans-serif" font-size="27.0833" lengthAdjust="spacing" textLength="252.9144" x="1103.8462" y="845.3837">FallDetectionAdapter</text><polygon fill="#444444" points="1704.0456,910.4004,1724.8789,918.7337,1704.0456,927.0671,1712.3789,918.7337" style="stroke:#444444;stroke-width:2.0833333333333335;"/><line style="stroke:#444444;stroke-width:2.0833333333333335;" x1="1068.4296" x2="1716.5456" y1="918.7337" y2="918.7337"/><text fill="#000000" font-family="sans-serif" font-size="27.0833" lengthAdjust="spacing" textLength="189.6495" x="1083.0129" y="908.6161">predict(window)</text><polygon fill="#444444" points="2261.1176,973.6328,2281.9509,981.9661,2261.1176,990.2995,2269.4509,981.9661" style="stroke:#444444;stroke-width:2.0833333333333335;"/><line style="stroke:#444444;stroke-width:2.0833333333333335;" x1="1729.0456" x2="2273.6176" y1="981.9661" y2="981.9661"/><text fill="#000000" font-family="sans-serif" font-size="27.0833" lengthAdjust="spacing" textLength="507.0719" x="1743.6289" y="971.8486">runOnnxSession('fusionnet-wrist', tensors)</text><polygon fill="#444444" points="1751.9623,1036.8652,1731.1289,1045.1986,1751.9623,1053.5319,1743.6289,1045.1986" style="stroke:#444444;stroke-width:2.0833333333333335;"/><line style="stroke:#444444;stroke-width:2.0833333333333335;stroke-dasharray:2.0,2.0;" x1="1739.4623" x2="2284.0342" y1="1045.1986" y2="1045.1986"/><text fill="#000000" font-family="sans-serif" font-size="27.0833" lengthAdjust="spacing" textLength="63.2253" x="1764.4623" y="1035.081">logits</text><polygon fill="#444444" points="1091.3462,1100.0977,1070.5129,1108.431,1091.3462,1116.7643,1083.0129,1108.431" style="stroke:#444444;stroke-width:2.0833333333333335;"/><line style="stroke:#444444;stroke-width:2.0833333333333335;stroke-dasharray:2.0,2.0;" x1="1078.8462" x2="1726.9623" y1="1108.431" y2="1108.431"/><text fill="#000000" font-family="sans-serif" font-size="27.0833" lengthAdjust="spacing" textLength="349.1343" x="1103.8462" y="1098.3134">{ label:'fall', confidence:0.92 }</text><path d="M414.5681,1139.681 L539.9241,1139.681 L539.9241,1157.0801 L519.0908,1177.9134 L414.5681,1177.9134 L414.5681,1139.681 " fill="#EEEEEE" style="stroke:#000000;stroke-width:3.125;"/><rect fill="none" height="1174.2676" style="stroke:#000000;stroke-width:3.125;" width="3658.5866" x="414.5681" y="1139.681"/><text fill="#000000" font-family="sans-serif" font-size="27.0833" font-weight="bold" lengthAdjust="spacing" textLength="31.606" x="445.8181" y="1169.8792">alt</text><text fill="#000000" font-family="sans-serif" font-size="22.9167" font-weight="bold" lengthAdjust="spacing" textLength="280.1361" x="571.1741" y="1167.6371">[confidence &gt;= threshold]</text><polygon fill="#444444" points="609.6395,1216.1458,588.8062,1224.4792,609.6395,1232.8125,601.3062,1224.4792" style="stroke:#444444;stroke-width:2.0833333333333335;"/><line style="stroke:#444444;stroke-width:2.0833333333333335;" x1="597.1395" x2="1066.3462" y1="1224.4792" y2="1224.4792"/><text fill="#000000" font-family="sans-serif" font-size="27.0833" lengthAdjust="spacing" textLength="431.7067" x="622.1395" y="1214.3616">show countdown UI (10s "Cancel?")</text><path d="M435.4014,1255.7292 L560.7574,1255.7292 L560.7574,1273.1283 L539.9241,1293.9616 L435.4014,1293.9616 L435.4014,1255.7292 " fill="#EEEEEE" style="stroke:#000000;stroke-width:3.125;"/><rect fill="none" height="920.3288" style="stroke:#000000;stroke-width:3.125;" width="3616.92" x="435.4014" y="1255.7292"/><text fill="#000000" font-family="sans-serif" font-size="27.0833" font-weight="bold" lengthAdjust="spacing" textLength="31.606" x="466.6514" y="1285.9273">alt</text><text fill="#000000" font-family="sans-serif" font-size="22.9167" font-weight="bold" lengthAdjust="spacing" textLength="255.9774" x="592.0074" y="1283.6853">[user does NOT cancel]</text><polygon fill="#444444" points="1043.4296,1332.194,1064.2629,1340.5273,1043.4296,1348.8607,1051.7629,1340.5273" style="stroke:#444444;stroke-width:2.0833333333333335;"/><line style="stroke:#444444;stroke-width:2.0833333333333335;stroke-dasharray:2.0,2.0;" x1="586.7228" x2="1055.9296" y1="1340.5273" y2="1340.5273"/><text fill="#000000" font-family="sans-serif" font-size="27.0833" lengthAdjust="spacing" textLength="88.8143" x="601.3062" y="1330.4097">timeout</text><polygon fill="#444444" points="2478.89,1395.4264,2499.7233,1403.7598,2478.89,1412.0931,2487.2233,1403.7598" style="stroke:#444444;stroke-width:2.0833333333333335;"/><line style="stroke:#444444;stroke-width:2.0833333333333335;" x1="1068.4296" x2="2491.39" y1="1403.7598" y2="1403.7598"/><text fill="#000000" font-family="sans-serif" font-size="27.0833" lengthAdjust="spacing" textLength="540.9922" x="1083.0129" y="1393.6422">createAlert(type='fall', wearer_id, confidence)</text><polygon fill="#444444" points="2753.1209,1458.6589,2773.9543,1466.9922,2753.1209,1475.3255,2761.4543,1466.9922" style="stroke:#444444;stroke-width:2.0833333333333335;"/><line style="stroke:#444444;stroke-width:2.0833333333333335;" x1="2503.89" x2="2765.6209" y1="1466.9922" y2="1466.9922"/><text fill="#000000" font-family="sans-serif" font-size="27.0833" lengthAdjust="spacing" textLength="224.231" x="2518.4733" y="1456.8746">INSERT alerts row</text><polygon fill="#444444" points="2526.8066,1521.8913,2505.9733,1530.2246,2526.8066,1538.5579,2518.4733,1530.2246" style="stroke:#444444;stroke-width:2.0833333333333335;"/><line style="stroke:#444444;stroke-width:2.0833333333333335;stroke-dasharray:2.0,2.0;" x1="2514.3066" x2="2776.0376" y1="1530.2246" y2="1530.2246"/><text fill="#000000" font-family="sans-serif" font-size="27.0833" lengthAdjust="spacing" textLength="88.8275" x="2539.3066" y="1520.107">alert_id</text><polygon fill="#444444" points="2996.6044,1585.1237,3017.4377,1593.457,2996.6044,1601.7904,3004.9377,1593.457" style="stroke:#444444;stroke-width:2.0833333333333335;"/><line style="stroke:#444444;stroke-width:2.0833333333333335;" x1="2503.89" x2="3009.1044" y1="1593.457" y2="1593.457"/><text fill="#000000" font-family="sans-serif" font-size="27.0833" lengthAdjust="spacing" textLength="425.9806" x="2518.4733" y="1583.3394">pushToCaregivers(wearer_id, alert)</text><polygon fill="#444444" points="3425.9959,1648.3561,3446.8292,1656.6895,3425.9959,1665.0228,3434.3292,1656.6895" style="stroke:#444444;stroke-width:2.0833333333333335;"/><line style="stroke:#444444;stroke-width:2.0833333333333335;" x1="3021.6044" x2="3438.4959" y1="1656.6895" y2="1656.6895"/><text fill="#000000" font-family="sans-serif" font-size="27.0833" lengthAdjust="spacing" textLength="379.3915" x="3036.1877" y="1646.5719">send(payload, caregiver_token)</text><polygon fill="#444444" points="3671.7285,1711.5885,3692.5618,1719.9219,3671.7285,1728.2552,3680.0618,1719.9219" style="stroke:#444444;stroke-width:2.0833333333333335;"/><line style="stroke:#444444;stroke-width:2.0833333333333335;" x1="3450.9959" x2="3684.2285" y1="1719.9219" y2="1719.9219"/><text fill="#000000" font-family="sans-serif" font-size="27.0833" lengthAdjust="spacing" textLength="195.7326" x="3465.5792" y="1709.8043">push notification</text><polygon fill="#444444" points="3937.0199,1774.821,3957.8532,1783.1543,3937.0199,1791.4876,3945.3532,1783.1543" style="stroke:#444444;stroke-width:2.0833333333333335;"/><line style="stroke:#444444;stroke-width:2.0833333333333335;" x1="3696.7285" x2="3949.5199" y1="1783.1543" y2="1783.1543"/><text fill="#000000" font-family="sans-serif" font-size="27.0833" lengthAdjust="spacing" textLength="215.2913" x="3711.3118" y="1773.0367">show alert banner</text><polygon fill="#444444" points="3719.6452,1838.0534,3698.8118,1846.3867,3719.6452,1854.7201,3711.3118,1846.3867" style="stroke:#444444;stroke-width:2.0833333333333335;"/><line style="stroke:#444444;stroke-width:2.0833333333333335;" x1="3707.1452" x2="3959.9365" y1="1846.3867" y2="1846.3867"/><text fill="#000000" font-family="sans-serif" font-size="27.0833" lengthAdjust="spacing" textLength="174.6531" x="3732.1452" y="1836.2691">tap notification</text><polygon fill="#444444" points="2801.0376,1901.2858,2780.2043,1909.6191,2801.0376,1917.9525,2792.7043,1909.6191" style="stroke:#444444;stroke-width:2.0833333333333335;"/><line style="stroke:#444444;stroke-width:2.0833333333333335;" x1="2788.5376" x2="3694.6452" y1="1909.6191" y2="1909.6191"/><text fill="#000000" font-family="sans-serif" font-size="27.0833" lengthAdjust="spacing" textLength="373.2686" x="2813.5376" y="1899.5015">SELECT alert details (realtime)</text><polygon fill="#444444" points="3671.7285,1964.5182,3692.5618,1972.8516,3671.7285,1981.1849,3680.0618,1972.8516" style="stroke:#444444;stroke-width:2.0833333333333335;"/><line style="stroke:#444444;stroke-width:2.0833333333333335;stroke-dasharray:2.0,2.0;" x1="2778.1209" x2="3684.2285" y1="1972.8516" y2="1972.8516"/><text fill="#000000" font-family="sans-serif" font-size="27.0833" lengthAdjust="spacing" textLength="267.2099" x="2792.7043" y="1962.734">alert + wearer location</text><line style="stroke:#000000;stroke-width:2.0833333333333335;stroke-dasharray:2.0,2.0;" x1="435.4014" x2="4052.3214" y1="1991.6016" y2="1991.6016"/><text fill="#000000" font-family="sans-serif" font-size="22.9167" font-weight="bold" lengthAdjust="spacing" textLength="154.128" x="445.8181" y="2015.391">[user cancels]</text><polygon fill="#444444" points="1043.4296,2060.7422,1064.2629,2069.0755,1043.4296,2077.4089,1051.7629,2069.0755" style="stroke:#444444;stroke-width:2.0833333333333335;"/><line style="stroke:#444444;stroke-width:2.0833333333333335;" x1="586.7228" x2="1055.9296" y1="2069.0755" y2="2069.0755"/><text fill="#000000" font-family="sans-serif" font-size="27.0833" lengthAdjust="spacing" textLength="96.3257" x="601.3062" y="2058.9579">cancel()</text><line style="stroke:#444444;stroke-width:2.0833333333333335;" x1="1068.4296" x2="1155.9296" y1="2132.3079" y2="2132.3079"/><line style="stroke:#444444;stroke-width:2.0833333333333335;" x1="1155.9296" x2="1155.9296" y1="2132.3079" y2="2159.3913"/><line style="stroke:#444444;stroke-width:2.0833333333333335;" x1="1070.5129" x2="1155.9296" y1="2159.3913" y2="2159.3913"/><polygon fill="#444444" points="1091.3462,2151.0579,1070.5129,2159.3913,1091.3462,2167.7246,1083.0129,2159.3913" style="stroke:#444444;stroke-width:2.0833333333333335;"/><text fill="#000000" font-family="sans-serif" font-size="27.0833" lengthAdjust="spacing" textLength="212.263" x="1083.0129" y="2122.1903">discard prediction</text><line style="stroke:#000000;stroke-width:2.0833333333333335;stroke-dasharray:2.0,2.0;" x1="414.5681" x2="4073.1547" y1="2192.7246" y2="2192.7246"/><text fill="#000000" font-family="sans-serif" font-size="22.9167" font-weight="bold" lengthAdjust="spacing" textLength="180.7933" x="424.9847" y="2216.5141">[low confidence]</text><line style="stroke:#444444;stroke-width:2.0833333333333335;" x1="1068.4296" x2="1155.9296" y1="2270.1986" y2="2270.1986"/><line style="stroke:#444444;stroke-width:2.0833333333333335;" x1="1155.9296" x2="1155.9296" y1="2270.1986" y2="2297.2819"/><line style="stroke:#444444;stroke-width:2.0833333333333335;" x1="1070.5129" x2="1155.9296" y1="2297.2819" y2="2297.2819"/><polygon fill="#444444" points="1091.3462,2288.9486,1070.5129,2297.2819,1091.3462,2305.6152,1083.0129,2297.2819" style="stroke:#444444;stroke-width:2.0833333333333335;"/><text fill="#000000" font-family="sans-serif" font-size="27.0833" lengthAdjust="spacing" textLength="75.2858" x="1083.0129" y="2260.081">ignore</text><!--SRC=[XLNRRjiu47tNLmoo3x6HTU46tI8Rm5t8jzP0BaMSeYy50beSsqHeKYMfkjwY_zxXHRBaRRlAGoBEcJF3EMSY9vn4MEBd2bM1C1LiOzWE1Z1dKi8K7HPEQ0M3Dp1X1ZVY2nh89HgNsMUXIkRHTikutWkrWJMJ5biHNWgu70vR9ojMF6-ChXIVQAaD_36V-PysMztCjmpeoOtH-uHz5PvmV2FMU2CKZhNXQ5ByzUHgDfw7-7jcd2X4oPGRdvQSvhEh-UG_i5ymvONJvdSS4V2BxB7-sWbTXIVxdcNCfy7PSaSjx9ahjfzKRt7xuMB5ZDxHu4t_39WbRPJL9YkFZSBPHm_FotA9veiea19jGC6gMg_hn03gvkMBb140-U8qUgivoWTIsJfp21XwwOAyBnfRv9oLr2ZLdrUMtk_GnTefq4szL-hhGwMSsCNwzm-F9mruNtKwz0Ssuyon5RD8mwhAy1TLP246594OYqx7NRexxSHQ5CntscODvzdAYydCWQuqkGtdzBjBS7GyAyi0cRnzeh4dwPfmber6CD5qCrNfoe9bkrBwTHYDiYYVtv-W1rm3QGmNqAWSqMYXzzSGtltRpoAkbH15XKiBj6EqQ7JvbyDXdTSFrHUA865hg6R3a2yelJIwG6jZ8ny3GoyIzJC248n49jm6tVZmU2YnTqvhB9zuhV9vF_E8GKtuCmiaflGMgY8NXJjMIX42aUu4C9NoXbXIQqH3DOE35Bh1tf3_ply45pgc2_g4GOTTweqWOpIaTMlVGB8Lokjm0w8ej5eBxkToFNpnzoNujPEkTGnlHk2s1krMInwtUT6UFPtl2KwkfLie-B00chtrrg1a-SyPJTydUTBAKYTSav9tzuzG1408-YT9KlVfTq1NhWcdwKLBNqDXa3aChpr7Yepg- -oHF6UU16zVhN-aYGH4DHrxfzqjPpIwj2dqRxG1KdZGBXWWHFiJfh0jNj3ARXzrutdRQ_KIqezjn1JAfOtoCqJ5UoKxICrytpN3azFFg8vP7km_Cs75Ka5GhHrka0dI-IObgK8dj5na97F4DwWslsFb_z67AIvdDxD9cYBGKZ0XQLb98UbLx9_EjE6F2HT9Cx9igmpIPp8Q9lh4dXeb-IH6U_rJe_WO5vPcoUjDQwWLpmAz3CwjJPATP8kDqWOpZ_u1]--></g></svg>