<svg xmlns="http://www.w3.org/2000/svg" xmlns:xlink="http://www.w3.org/1999/xlink" contentStyleType="text/css" height="6283.3333px" preserveAspectRatio="none" style="width:2160px;height:6283px;background:#FFFFFF;" version="1.1" viewBox="0 0 2160 6283" width="2160.4167px" zoomAndPan="magnify"><defs/><g><!--cluster Authentication & Profile--><g id="cluster_Authentication &amp; Profile"><rect fill="none" height="1072.9167" rx="5.2083" ry="5.2083" style="stroke:#181818;stroke-width:2.0833333333333335;" width="518.75" x="328.125" y="1441.6667"/><text fill="#000000" font-family="sans-serif" font-size="29.1667" font-weight="bold" lengthAdjust="spacing" textLength="332.1838" x="421.4081" y="1476.1108">Authentication &amp; Profile</text></g><!--cluster Linking--><g id="cluster_Linking"><rect fill="none" height="683.3333" rx="5.2083" ry="5.2083" style="stroke:#181818;stroke-width:2.0833333333333335;" width="495.8333" x="339.5833" y="3275"/><text fill="#000000" font-family="sans-serif" font-size="29.1667" font-weight="bold" lengthAdjust="spacing" textLength="103.6926" x="535.6537" y="3309.4442">Linking</text></g><!--cluster Vitals & Activity--><g id="cluster_Vitals &amp; Activity"><rect fill="none" height="500" rx="5.2083" ry="5.2083" style="stroke:#181818;stroke-width:2.0833333333333335;" width="456.25" x="359.375" y="14.5833"/><text fill="#000000" font-family="sans-serif" font-size="29.1667" font-weight="bold" lengthAdjust="spacing" textLength="220.4447" x="477.2776" y="49.0275">Vitals &amp; Activity</text></g><!--cluster Alerts & Safety--><g id="cluster_Alerts &amp; Safety"><rect fill="none" height="597.9167" rx="5.2083" ry="5.2083" style="stroke:#181818;stroke-width:2.0833333333333335;" width="1745.8333" x="402.0833" y="2627.0833"/><text fill="#000000" font-family="sans-serif" font-size="29.1667" font-weight="bold" lengthAdjust="spacing" textLength="207.4849" x="1171.2575" y="2661.5275">Alerts &amp; Safety</text></g><!--cluster On-device AI--><g id="cluster_On-device AI"><rect fill="none" height="554.1667" rx="5.2083" ry="5.2083" style="stroke:#181818;stroke-width:2.0833333333333335;" width="533.3333" x="320.8333" y="4791.6667"/><text fill="#000000" font-family="sans-serif" font-size="29.1667" font-weight="bold" lengthAdjust="spacing" textLength="178.2898" x="498.3551" y="4826.1108">On-device AI</text></g><!--cluster Clinical Assistant--><g id="cluster_Clinical Assistant"><rect fill="none" height="827.0833" rx="5.2083" ry="5.2083" style="stroke:#181818;stroke-width:2.0833333333333335;" width="1181.25" x="312.5" y="564.5833"/><text fill="#000000" font-family="sans-serif" font-size="29.1667" font-weight="bold" lengthAdjust="spacing" textLength="243.1315" x="781.5592" y="599.0275">Clinical Assistant</text></g><!--cluster Geofencing--><g id="cluster_Geofencing"><rect fill="none" height="504.1667" rx="5.2083" ry="5.2083" style="stroke:#181818;stroke-width:2.0833333333333335;" width="1118.75" x="357.2917" y="5395.8333"/><text fill="#000000" font-family="sans-serif" font-size="29.1667" font-weight="bold" lengthAdjust="spacing" textLength="160.4309" x="836.4512" y="5430.2775">Geofencing</text></g><!--cluster Map--><g id="cluster_Map"><rect fill="none" height="339.5833" rx="5.2083" ry="5.2083" style="stroke:#181818;stroke-width:2.0833333333333335;" width="422.9167" x="376.0417" y="4402.0833"/><text fill="#000000" font-family="sans-serif" font-size="29.1667" font-weight="bold" lengthAdjust="spacing" textLength="58.3333" x="558.3333" y="4436.5275">Map</text></g><!--cluster Achievements--><g id="cluster_Achievements"><rect fill="none" height="343.75" rx="5.2083" ry="5.2083" style="stroke:#181818;stroke-width:2.0833333333333335;" width="420.8333" x="377.0833" y="4008.3333"/><text fill="#000000" font-family="sans-serif" font-size="29.1667" font-weight="bold" lengthAdjust="spacing" textLength="197.7722" x="488.6139" y="4042.7775">Achievements</text></g><g id="elem_UC_A1"><ellipse cx="587.4096" cy="1549.9619" fill="#FEFECE" rx="100.9512" ry="32.2535" style="stroke:#A80036;stroke-width:1.0416666666666667;"/><text fill="#000000" font-family="sans-serif" font-size="29.1667" lengthAdjust="spacing" textLength="108.606" x="528.4672" y="1559.0035">Register</text></g><g id="elem_UC_A2"><ellipse cx="587.4115" cy="1687.3994" fill="#FEFECE" rx="80.1199" ry="32.1911" style="stroke:#A80036;stroke-width:1.0416666666666667;"/><text fill="#000000" font-family="sans-serif" font-size="29.1667" lengthAdjust="spacing" textLength="79.4678" x="547.6777" y="1695.1671">Log in</text></g><g id="elem_UC_A3"><ellipse cx="587.7533" cy="2443.384" fill="#FEFECE" rx="155.4616" ry="36.0923" style="stroke:#A80036;stroke-width:1.0416666666666667;"/><text fill="#000000" font-family="sans-serif" font-size="29.1667" lengthAdjust="spacing" textLength="209.1227" x="476.9419" y="2452.7936">Reset password</text></g><g id="elem_UC_A4"><ellipse cx="587.0784" cy="1825.1534" fill="#FEFECE" rx="122.495" ry="32.4451" style="stroke:#A80036;stroke-width:1.0416666666666667;"/><text fill="#000000" font-family="sans-serif" font-size="29.1667" lengthAdjust="spacing" textLength="137.8011" x="511.9278" y="1834.563">Edit profile</text></g><g id="elem_UC_A5"><ellipse cx="587.752" cy="1969.2171" fill="#FEFECE" rx="170.0437" ry="39.0087" style="stroke:#A80036;stroke-width:1.0416666666666667;"/><text fill="#000000" font-family="sans-serif" font-size="29.1667" lengthAdjust="spacing" textLength="246.4071" x="463.9386" y="1977.1653">Edit medical profile</text></g><g id="elem_UC_A6"><ellipse cx="587.5122" cy="2131.4608" fill="#FEFECE" rx="226.0538" ry="50.2108" style="stroke:#A80036;stroke-width:1.0416666666666667;"/><text fill="#000000" font-family="sans-serif" font-size="29.1667" lengthAdjust="spacing" textLength="374.5097" x="400.2573" y="2139.2285">Manage emergency contacts</text></g><g id="elem_UC_A7"><ellipse cx="587.7002" cy="2293.5817" fill="#FEFECE" rx="172.0752" ry="39.415" style="stroke:#A80036;stroke-width:1.0416666666666667;"/><text fill="#000000" font-family="sans-serif" font-size="29.1667" lengthAdjust="spacing" textLength="251.3062" x="462.0471" y="2301.3495">Toggle notifications</text></g><g id="elem_UC_L1"><ellipse cx="587.726" cy="3395.8785" fill="#FEFECE" rx="199.1844" ry="44.8369" style="stroke:#A80036;stroke-width:1.0416666666666667;"/><text fill="#000000" font-family="sans-serif" font-size="29.1667" lengthAdjust="spacing" textLength="314.4816" x="430.4852" y="3403.6463">Invite caregiver by email</text></g><g id="elem_UC_L2"><ellipse cx="587.7815" cy="3877.348" fill="#FEFECE" rx="210.6982" ry="47.1396" style="stroke:#A80036;stroke-width:1.0416666666666667;"/><text fill="#000000" font-family="sans-serif" font-size="29.1667" lengthAdjust="spacing" textLength="340.4439" x="417.5595" y="3885.1157">Accept caregiver invitation</text></g><g id="elem_UC_L3"><ellipse cx="587.2439" cy="3708.2821" fill="#FEFECE" rx="214.3272" ry="47.8654" style="stroke:#A80036;stroke-width:1.0416666666666667;"/><text fill="#000000" font-family="sans-serif" font-size="29.1667" lengthAdjust="spacing" textLength="348.5474" x="412.9702" y="3716.0499">Decline caregiver invitation</text></g><g id="elem_UC_L4"><ellipse cx="587.748" cy="3549.6329" fill="#FEFECE" rx="155.4563" ry="36.0913" style="stroke:#A80036;stroke-width:1.0416666666666667;"/><text fill="#000000" font-family="sans-serif" font-size="29.1667" lengthAdjust="spacing" textLength="209.1085" x="476.9438" y="3559.0425">Unlink caregiver</text></g><g id="elem_UC_V1"><ellipse cx="587.9605" cy="285.7171" fill="#FEFECE" rx="148.3771" ry="34.6754" style="stroke:#A80036;stroke-width:1.0416666666666667;"/><text fill="#000000" font-family="sans-serif" font-size="29.1667" lengthAdjust="spacing" textLength="189.6403" x="486.8903" y="295.1267">View live vitals</text></g><g id="elem_UC_V2"><ellipse cx="587.6281" cy="437.7339" fill="#FEFECE" rx="194.9197" ry="43.9839" style="stroke:#A80036;stroke-width:1.0416666666666667;"/><text fill="#000000" font-family="sans-serif" font-size="29.1667" lengthAdjust="spacing" textLength="304.7546" x="435.2507" y="445.5017">View 24h activity charts</text></g><g id="elem_UC_V3"><ellipse cx="587.2228" cy="132.8612" fill="#FEFECE" rx="191.3894" ry="43.2779" style="stroke:#A80036;stroke-width:1.0416666666666667;"/><text fill="#000000" font-family="sans-serif" font-size="29.1667" lengthAdjust="spacing" textLength="296.6512" x="438.8972" y="140.629">View weekly step chart</text></g><g id="elem_UC_S1"><ellipse cx="1267.0579" cy="2740.0782" fill="#FEFECE" rx="138.9329" ry="32.7866" style="stroke:#A80036;stroke-width:1.0416666666666667;"/><text fill="#000000" font-family="sans-serif" font-size="29.1667" lengthAdjust="spacing" textLength="162.0829" x="1179.7664" y="2749.4878">Trigger SOS</text></g><g id="elem_UC_S2"><ellipse cx="588.0104" cy="2735.5188" fill="#FEFECE" rx="142.1771" ry="33.4354" style="stroke:#A80036;stroke-width:1.0416666666666667;"/><text fill="#000000" font-family="sans-serif" font-size="29.1667" lengthAdjust="spacing" textLength="171.7957" x="495.8626" y="2744.9283">Confirm SOS</text></g><g id="elem_UC_S3"><ellipse cx="1266.8012" cy="3057.9436" fill="#FEFECE" rx="150.1345" ry="35.0269" style="stroke:#A80036;stroke-width:1.0416666666666667;"/><text fill="#000000" font-family="sans-serif" font-size="29.1667" lengthAdjust="spacing" textLength="194.5536" x="1163.2744" y="3067.3532">Auto-detect fall</text></g><g id="elem_UC_S4"><ellipse cx="587.8945" cy="2877.1622" fill="#FEFECE" rx="152.4778" ry="35.4956" style="stroke:#A80036;stroke-width:1.0416666666666667;"/><text fill="#000000" font-family="sans-serif" font-size="29.1667" lengthAdjust="spacing" textLength="201.0193" x="481.1348" y="2886.5718">Cancel fall alert</text></g><g id="elem_UC_S5"><ellipse cx="1911.8353" cy="3058.2004" fill="#FEFECE" rx="203.502" ry="45.7004" style="stroke:#A80036;stroke-width:1.0416666666666667;"/><text fill="#000000" font-family="sans-serif" font-size="29.1667" lengthAdjust="spacing" textLength="324.2655" x="1749.7025" y="3065.9681">Receive push notification</text></g><g id="elem_UC_S6"><ellipse cx="588.0152" cy="3158.4364" fill="#FEFECE" rx="142.1819" ry="33.4364" style="stroke:#A80036;stroke-width:1.0416666666666667;"/><text fill="#000000" font-family="sans-serif" font-size="29.1667" lengthAdjust="spacing" textLength="171.8099" x="495.8603" y="3167.846">View alert list</text></g><g id="elem_UC_S7"><ellipse cx="587.4758" cy="3018.7452" fill="#FEFECE" rx="141.6425" ry="33.3285" style="stroke:#A80036;stroke-width:1.0416666666666667;"/><text fill="#000000" font-family="sans-serif" font-size="29.1667" lengthAdjust="spacing" textLength="170.2148" x="496.1184" y="3028.1548">Resolve alert</text></g><g id="elem_UC_AI1"><ellipse cx="587.4609" cy="5083.5338" fill="#FEFECE" rx="231.2109" ry="51.2422" style="stroke:#A80036;stroke-width:1.0416666666666667;"/><text fill="#000000" font-family="sans-serif" font-size="29.1667" lengthAdjust="spacing" textLength="385.8317" x="394.545" y="5091.3016">Run fall detection (FusionNet)</text></g><g id="elem_UC_AI2"><ellipse cx="587.5774" cy="5260.0155" fill="#FEFECE" rx="233.4107" ry="51.6821" style="stroke:#A80036;stroke-width:1.0416666666666667;"/><text fill="#000000" font-family="sans-serif" font-size="29.1667" lengthAdjust="spacing" textLength="390.6453" x="392.2547" y="5267.7832">Run activity recognition (HAR)</text></g><g id="elem_UC_AI3"><ellipse cx="587.9276" cy="4912.7939" fill="#FEFECE" rx="205.6359" ry="46.1272" style="stroke:#A80036;stroke-width:1.0416666666666667;"/><text fill="#000000" font-family="sans-serif" font-size="29.1667" lengthAdjust="spacing" textLength="329.0792" x="423.388" y="4920.5616">Run cardiac classification</text></g><g id="elem_UC_AS1"><ellipse cx="587.284" cy="679.5401" fill="#FEFECE" rx="174.784" ry="39.9568" style="stroke:#A80036;stroke-width:1.0416666666666667;"/><text fill="#000000" font-family="sans-serif" font-size="29.1667" lengthAdjust="spacing" textLength="257.7861" x="458.391" y="687.3079">Open assistant chat</text></g><g id="elem_UC_AS2"><ellipse cx="588.0195" cy="831.3539" fill="#FEFECE" rx="173.4362" ry="39.6872" style="stroke:#A80036;stroke-width:1.0416666666666667;"/><text fill="#000000" font-family="sans-serif" font-size="29.1667" lengthAdjust="spacing" textLength="254.5675" x="460.7358" y="839.1216">Ask health question</text></g><g id="elem_UC_AS3"><ellipse cx="1266.4379" cy="1016.6209" fill="#FEFECE" rx="193.5212" ry="43.7042" style="stroke:#A80036;stroke-width:1.0416666666666667;"/><text fill="#000000" font-family="sans-serif" font-size="29.1667" lengthAdjust="spacing" textLength="301.5503" x="1115.6627" y="1024.3886">Auto-detect emergency</text></g><g id="elem_UC_AS4"><ellipse cx="587.4541" cy="998.1158" fill="#FEFECE" rx="241.6207" ry="53.3241" style="stroke:#A80036;stroke-width:1.0416666666666667;"/><text fill="#000000" font-family="sans-serif" font-size="29.1667" lengthAdjust="spacing" textLength="408.5327" x="383.1877" y="1005.8836">Receive response with citations</text></g><g id="elem_UC_AS5"><ellipse cx="587.9807" cy="1158.6378" fill="#FEFECE" rx="148.3974" ry="34.6795" style="stroke:#A80036;stroke-width:1.0416666666666667;"/><text fill="#000000" font-family="sans-serif" font-size="29.1667" lengthAdjust="spacing" textLength="189.6973" x="486.8821" y="1168.0474">Rate response</text></g><g id="elem_UC_AS6"><ellipse cx="587.6197" cy="1312.9406" fill="#FEFECE" rx="206.3697" ry="46.2739" style="stroke:#A80036;stroke-width:1.0416666666666667;"/><text fill="#000000" font-family="sans-serif" font-size="29.1667" lengthAdjust="spacing" textLength="330.7312" x="422.2541" y="1320.7084">Auto-escalate emergency</text></g><g id="elem_UC_G1"><ellipse cx="587.4461" cy="5507.9059" fill="#FEFECE" rx="160.3627" ry="37.0725" style="stroke:#A80036;stroke-width:1.0416666666666667;"/><text fill="#000000" font-family="sans-serif" font-size="29.1667" lengthAdjust="spacing" textLength="222.1252" x="471.3515" y="5517.0295">Create safe zone</text></g><g id="elem_UC_G2"><ellipse cx="587.2147" cy="5659.9429" fill="#FEFECE" rx="180.9647" ry="41.1929" style="stroke:#A80036;stroke-width:1.0416666666666667;"/><text fill="#000000" font-family="sans-serif" font-size="29.1667" lengthAdjust="spacing" textLength="272.4121" x="451.0086" y="5667.7107">Edit/delete safe zone</text></g><g id="elem_UC_G3"><ellipse cx="587.7078" cy="5820.4582" fill="#FEFECE" rx="197.0828" ry="44.4166" style="stroke:#A80036;stroke-width:1.0416666666666667;"/><text fill="#000000" font-family="sans-serif" font-size="29.1667" lengthAdjust="spacing" textLength="309.6965" x="432.8596" y="5828.226">Detect geofence breach</text></g><g id="elem_UC_G4"><ellipse cx="1266.7914" cy="5582.9416" fill="#FEFECE" rx="176.1664" ry="40.2333" style="stroke:#A80036;stroke-width:1.0416666666666667;"/><text fill="#000000" font-family="sans-serif" font-size="29.1667" lengthAdjust="spacing" textLength="261.0758" x="1136.2535" y="5590.7094">Send geofence alert</text></g><g id="elem_UC_M1"><ellipse cx="587.019" cy="4514.2788" fill="#FEFECE" rx="160.9773" ry="37.1955" style="stroke:#A80036;stroke-width:1.0416666666666667;"/><text fill="#000000" font-family="sans-serif" font-size="29.1667" lengthAdjust="spacing" textLength="223.7203" x="470.4344" y="4523.3277">View live location</text></g><g id="elem_UC_M2"><ellipse cx="587.5603" cy="4666.6787" fill="#FEFECE" rx="178.1853" ry="40.6371" style="stroke:#A80036;stroke-width:1.0416666666666667;"/><text fill="#000000" font-family="sans-serif" font-size="29.1667" lengthAdjust="spacing" textLength="265.861" x="454.6298" y="4674.4465">View location history</text></g><g id="elem_UC_AC1"><ellipse cx="587.237" cy="4276.8224" fill="#FEFECE" rx="176.8203" ry="40.3641" style="stroke:#A80036;stroke-width:1.0416666666666667;"/><text fill="#000000" font-family="sans-serif" font-size="29.1667" lengthAdjust="spacing" textLength="262.6282" x="455.9229" y="4284.5901">Unlock achievement</text></g><g id="elem_UC_AC2"><ellipse cx="587.6884" cy="4122.746" fill="#FEFECE" rx="172.0634" ry="39.4127" style="stroke:#A80036;stroke-width:1.0416666666666667;"/><text fill="#000000" font-family="sans-serif" font-size="29.1667" lengthAdjust="spacing" textLength="251.2777" x="462.0495" y="4130.5137">View achievements</text></g><!--entity Wearer--><g id="elem_Wearer"><ellipse cx="113.5417" cy="1835.4167" fill="#DAE8FC" rx="33.3333" ry="33.3333" style="stroke:#6C8EBF;stroke-width:1.0416666666666667;"/><path d="M113.5417,1877.0833 C121.875,1877.0833 128.125,1877.0833 136.4583,1868.75 C153.125,1868.75 169.7917,1885.4167 169.7917,1902.0833 L169.7917,1910.4167 C169.7917,1918.75 161.4583,1927.0833 153.125,1927.0833 L73.9583,1927.0833 C65.625,1927.0833 57.2917,1918.75 57.2917,1910.4167 L57.2917,1902.0833 C57.2917,1885.4167 73.9583,1868.75 90.625,1868.75 C98.9583,1877.0833 105.2083,1877.0833 113.5417,1877.0833 " fill="#DAE8FC" style="stroke:#6C8EBF;stroke-width:1.0416666666666667;"/><text fill="#000000" font-family="sans-serif" font-size="29.1667" lengthAdjust="spacing" textLength="95.6177" x="65.7328" y="1958.4025">Wearer</text></g><!--entity Caregiver--><g id="elem_Caregiver"><ellipse cx="113.2182" cy="3041.6667" fill="#DAE8FC" rx="33.3333" ry="33.3333" style="stroke:#6C8EBF;stroke-width:1.0416666666666667;"/><path d="M113.2182,3083.3333 C121.5515,3083.3333 127.8015,3083.3333 136.1348,3075 C152.8015,3075 169.4682,3091.6667 169.4682,3108.3333 L169.4682,3116.6667 C169.4682,3125 161.1348,3133.3333 152.8015,3133.3333 L73.6348,3133.3333 C65.3015,3133.3333 56.9682,3125 56.9682,3116.6667 L56.9682,3108.3333 C56.9682,3091.6667 73.6348,3075 90.3015,3075 C98.6348,3083.3333 104.8848,3083.3333 113.2182,3083.3333 " fill="#DAE8FC" style="stroke:#6C8EBF;stroke-width:1.0416666666666667;"/><text fill="#000000" font-family="sans-serif" font-size="29.1667" lengthAdjust="spacing" textLength="126.4364" x="50" y="3164.6525">Caregiver</text></g><!--entity Admin--><g id="elem_Admin"><ellipse cx="113.5417" cy="1597.9167" fill="#DAE8FC" rx="33.3333" ry="33.3333" style="stroke:#6C8EBF;stroke-width:1.0416666666666667;"/><path d="M113.5417,1639.5833 C121.875,1639.5833 128.125,1639.5833 136.4583,1631.25 C153.125,1631.25 169.7917,1647.9167 169.7917,1664.5833 L169.7917,1672.9167 C169.7917,1681.25 161.4583,1689.5833 153.125,1689.5833 L73.9583,1689.5833 C65.625,1689.5833 57.2917,1681.25 57.2917,1672.9167 L57.2917,1664.5833 C57.2917,1647.9167 73.9583,1631.25 90.625,1631.25 C98.9583,1639.5833 105.2083,1639.5833 113.5417,1639.5833 " fill="#DAE8FC" style="stroke:#6C8EBF;stroke-width:1.0416666666666667;"/><text fill="#000000" font-family="sans-serif" font-size="29.1667" lengthAdjust="spacing" textLength="82.6721" x="72.2056" y="1720.9025">Admin</text></g><!--entity Sensor--><g id="elem_Sensor"><ellipse cx="113.8072" cy="5017.7083" fill="#DAE8FC" rx="33.3333" ry="33.3333" style="stroke:#6C8EBF;stroke-width:1.0416666666666667;"/><path d="M113.8072,5059.375 C122.1405,5059.375 128.3905,5059.375 136.7238,5051.0417 C153.3905,5051.0417 170.0572,5067.7083 170.0572,5084.375 L170.0572,5092.7083 C170.0572,5101.0417 161.7238,5109.375 153.3905,5109.375 L74.2238,5109.375 C65.8905,5109.375 57.5572,5101.0417 57.5572,5092.7083 L57.5572,5084.375 C57.5572,5067.7083 74.2238,5051.0417 90.8905,5051.0417 C99.2238,5059.375 105.4738,5059.375 113.8072,5059.375 " fill="#DAE8FC" style="stroke:#6C8EBF;stroke-width:1.0416666666666667;"/><text fill="#000000" font-family="sans-serif" font-size="29.1667" lengthAdjust="spacing" textLength="153.9795" x="12.5" y="5140.6942">Smartwatch</text><text fill="#000000" font-family="sans-serif" font-size="29.1667" lengthAdjust="spacing" textLength="202.6143" x="12.5" y="5177.3804">(sensor source)</text></g><!--link Wearer to UC_A1--><g id="link_Wearer_UC_A1"><path d="M171.3125,1820.9583 C186.0625,1803.2708 201.5208,1783.625 214.5833,1764.5833 C256.5625,1703.4167 236.6667,1663.5208 295.8333,1618.75 C350.625,1577.2917 414.2431,1561.7341 474.6389,1555.0258 " fill="none" id="Wearer-to-UC_A1" style="stroke:#181818;stroke-width:2.0833333333333335;"/><polygon fill="#181818" points="487.0625,1553.6458,467.5072,1547.4333,476.7095,1554.7958,469.3471,1563.9981,487.0625,1553.6458" style="stroke:#181818;stroke-width:2.0833333333333335;"/></g><!--link Wearer to UC_A2--><g id="link_Wearer_UC_A2"><path d="M171.4375,1835.5208 C205.4167,1808.6667 250.8125,1776.5625 295.8333,1756.25 C365.3125,1724.9167 438.5131,1708.8619 498.5548,1699.1952 " fill="none" id="Wearer-to-UC_A2" style="stroke:#181818;stroke-width:2.0833333333333335;"/><polygon fill="#181818" points="510.8958,1697.2083,491.0596,1691.9613,500.6116,1698.8641,493.7088,1708.4161,510.8958,1697.2083" style="stroke:#181818;stroke-width:2.0833333333333335;"/></g><!--link Wearer to UC_A3--><g id="link_Wearer_UC_A3"><path d="M123.1458,1965.7917 C137.5,2074.125 178.7292,2263.0417 295.8333,2368.75 C334.7708,2403.8958 375.8137,2420.5066 426.0637,2430.7357 " fill="none" id="Wearer-to-UC_A3" style="stroke:#181818;stroke-width:2.0833333333333335;"/><polygon fill="#181818" points="438.3125,2433.2292,421.6016,2421.3232,428.1052,2431.1513,418.277,2437.6549,438.3125,2433.2292" style="stroke:#181818;stroke-width:2.0833333333333335;"/></g><!--link Wearer to UC_A4--><g id="link_Wearer_UC_A4"><path d="M171.3542,1876.4167 C245.9792,1867.1458 367.5747,1852.0633 462.908,1840.2091 " fill="none" id="Wearer-to-UC_A4" style="stroke:#181818;stroke-width:2.0833333333333335;"/><polygon fill="#181818" points="475.3125,1838.6667,455.6775,1832.7107,464.9754,1839.952,457.7341,1849.25,475.3125,1838.6667" style="stroke:#181818;stroke-width:2.0833333333333335;"/></g><!--link Wearer to UC_A5--><g id="link_Wearer_UC_A5"><path d="M171.3542,1893.4792 C240.3958,1906.0208 347.9307,1925.5769 440.9932,1942.4936 " fill="none" id="Wearer-to-UC_A5" style="stroke:#181818;stroke-width:2.0833333333333335;"/><polygon fill="#181818" points="453.2917,1944.7292,436.3344,1933.1768,443.0429,1942.8662,433.3536,1949.5748,453.2917,1944.7292" style="stroke:#181818;stroke-width:2.0833333333333335;"/></g><!--link Wearer to UC_A6--><g id="link_Wearer_UC_A6"><path d="M171.4375,1944.6875 C204.7083,1978.0833 249.4167,2017.7708 295.8333,2043.75 C335.4792,2065.9375 369.4243,2079.5289 412.8409,2092.5706 " fill="none" id="Wearer-to-UC_A6" style="stroke:#181818;stroke-width:2.0833333333333335;"/><polygon fill="#181818" points="424.8125,2096.1667,409.2525,2082.7915,414.8362,2093.1699,404.4578,2098.7536,424.8125,2096.1667" style="stroke:#181818;stroke-width:2.0833333333333335;"/></g><!--link Wearer to UC_A7--><g id="link_Wearer_UC_A7"><path d="M139.25,1965.6458 C165.3333,2041.8333 214.7292,2152.7292 295.8333,2216.6667 C334.4375,2247.1042 371.8374,2262.6985 419.0041,2273.886 " fill="none" id="Wearer-to-UC_A7" style="stroke:#181818;stroke-width:2.0833333333333335;"/><polygon fill="#181818" points="431.1667,2276.7708,414.8461,2264.3352,421.0312,2274.3668,410.9996,2280.5519,431.1667,2276.7708" style="stroke:#181818;stroke-width:2.0833333333333335;"/></g><!--link Wearer to UC_L1--><g id="link_Wearer_UC_L1"><path d="M122.5625,1966.4792 C146.1667,2242.9167 225.9167,3119.6042 295.8333,3225 C337.9375,3288.4792 400.8926,3326.7058 463.7468,3353.7474 " fill="none" id="Wearer-to-UC_L1" style="stroke:#181818;stroke-width:2.0833333333333335;"/><polygon fill="#181818" points="475.2292,3358.6875,461.2989,3343.6225,465.6605,3354.5708,454.7122,3358.9323,475.2292,3358.6875" style="stroke:#181818;stroke-width:2.0833333333333335;"/></g><!--link Wearer to UC_L4--><g id="link_Wearer_UC_L4"><path d="M124.3333,1965.9375 C158.6458,2290.7083 283.2083,3462.6458 295.8333,3477.0833 C330.2917,3516.5 370.3538,3533.896 421.1038,3543.271 " fill="none" id="Wearer-to-UC_L4" style="stroke:#181818;stroke-width:2.0833333333333335;"/><polygon fill="#181818" points="433.3958,3545.5417,416.4716,3533.9409,423.1525,3543.6494,413.444,3550.3303,433.3958,3545.5417" style="stroke:#181818;stroke-width:2.0833333333333335;"/></g><!--link Wearer to UC_V1--><g id="link_Wearer_UC_V1"><path d="M171.2083,1831.4583 C188.2292,1812.2083 204.9792,1789.0625 214.5833,1764.5833 C271.8333,1618.6667 194.1042,475.5 295.8333,356.25 C331.2708,314.7083 374.3413,297.3298 427.2371,288.9548 " fill="none" id="Wearer-to-UC_V1" style="stroke:#181818;stroke-width:2.0833333333333335;"/><polygon fill="#181818" points="439.5833,287,419.7608,281.7014,429.2948,288.629,422.3672,298.163,439.5833,287" style="stroke:#181818;stroke-width:2.0833333333333335;"/></g><!--link Wearer to UC_V2--><g id="link_Wearer_UC_V2"><path d="M171.1042,1831.4167 C188.125,1812.1667 204.8958,1789.0417 214.5833,1764.5833 C309.6875,1524.7083 150.4375,819.4375 295.8333,606.25 C338.9375,543.0417 402.6788,505.1284 465.6371,478.4409 " fill="none" id="Wearer-to-UC_V2" style="stroke:#181818;stroke-width:2.0833333333333335;"/><polygon fill="#181818" points="477.1458,473.5625,456.6304,473.2077,467.5552,477.6279,463.135,488.5527,477.1458,473.5625" style="stroke:#181818;stroke-width:2.0833333333333335;"/></g><!--link Wearer to UC_V3--><g id="link_Wearer_UC_V3"><path d="M171.3333,1831.5 C188.3542,1812.2708 205.0833,1789.1042 214.5833,1764.5833 C276.8333,1603.75 181.7292,343.8958 295.8333,214.5833 C325.0208,181.5 354.4774,164.8382 396.9357,152.7549 " fill="none" id="Wearer-to-UC_V3" style="stroke:#181818;stroke-width:2.0833333333333335;"/><polygon fill="#181818" points="408.9583,149.3333,388.6434,146.4506,398.9395,152.1846,393.2055,162.4807,408.9583,149.3333" style="stroke:#181818;stroke-width:2.0833333333333335;"/></g><!--link Wearer to UC_S1--><g id="link_Wearer_UC_S1"><path d="M114.2083,1965.7917 C116.6458,2100.7292 142.0417,2368.2708 295.8333,2514.5833 C303.8542,2522.2083 908.036,2659.1432 1153.3277,2714.5182 " fill="none" id="Wearer-to-UC_S1" style="stroke:#181818;stroke-width:2.0833333333333335;"/><polygon fill="#181818" points="1165.5208,2717.2708,1149.0662,2705.0131,1155.3599,2714.977,1145.396,2721.2707,1165.5208,2717.2708" style="stroke:#181818;stroke-width:2.0833333333333335;"/></g><!--link Wearer to UC_AS1--><g id="link_Wearer_UC_AS1"><path d="M170.9583,1831.3542 C187.9583,1812.1042 204.7708,1788.9792 214.5833,1764.5833 C298.6875,1555.6042 145.0833,921.5625 295.8333,754.1667 C327.1042,719.4375 360.0276,702.7502 405.3401,691.9585 " fill="none" id="Wearer-to-UC_AS1" style="stroke:#181818;stroke-width:2.0833333333333335;"/><polygon fill="#181818" points="417.5,689.0625,397.3295,685.2999,407.3668,691.4758,401.1908,701.5131,417.5,689.0625" style="stroke:#181818;stroke-width:2.0833333333333335;"/></g><!--link Wearer to UC_AS2--><g id="link_Wearer_UC_AS2"><path d="M171.1458,1830.625 C187.9375,1811.4792 204.5833,1788.625 214.5833,1764.5833 C288.0833,1588.1458 172.3125,1054.2083 295.8333,908.3333 C326.7708,871.8125 360.688,854.4527 407.063,843.5152 " fill="none" id="Wearer-to-UC_AS2" style="stroke:#181818;stroke-width:2.0833333333333335;"/><polygon fill="#181818" points="419.2292,840.6458,399.0669,836.8391,409.0907,843.037,402.8928,853.0607,419.2292,840.6458" style="stroke:#181818;stroke-width:2.0833333333333335;"/></g><!--link Wearer to UC_AS5--><g id="link_Wearer_UC_AS5"><path d="M170.8958,1829.6875 C187.4583,1810.6458 204.0208,1788.0833 214.5833,1764.5833 C313.3125,1545.0833 133.4167,1406.7917 295.8333,1229.1667 C332.3333,1189.25 374.9602,1172.1704 427.2102,1163.5038 " fill="none" id="Wearer-to-UC_AS5" style="stroke:#181818;stroke-width:2.0833333333333335;"/><polygon fill="#181818" points="439.5417,1161.4583,419.6808,1156.3055,429.2654,1163.1628,422.408,1172.7475,439.5417,1161.4583" style="stroke:#181818;stroke-width:2.0833333333333335;"/></g><!--link Wearer to UC_AC2--><g id="link_Wearer_UC_AC2"><path d="M123.375,1965.8542 C140.3958,2147.4583 182.0625,2595.4583 214.5833,2970.8333 C233.5833,3190.2083 177.375,3772.7292 295.8333,3958.3333 C337.9792,4024.3958 404.9934,4062.1006 469.7017,4087.2256 " fill="none" id="Wearer-to-UC_AC2" style="stroke:#181818;stroke-width:2.0833333333333335;"/><polygon fill="#181818" points="481.3542,4091.75,466.8918,4077.1951,471.6438,4087.9796,460.8592,4092.7317,481.3542,4091.75" style="stroke:#181818;stroke-width:2.0833333333333335;"/></g><!--link Caregiver to UC_A2--><g id="link_Caregiver_UC_A2"><path d="M121.375,3007.0417 C141.3958,2730.6042 211.3542,1849.5208 295.8333,1756.25 C348.7292,1697.8542 428.8768,1684.8372 495.1268,1683.7122 " fill="none" id="Caregiver-to-UC_A2" style="stroke:#181818;stroke-width:2.0833333333333335;"/><polygon fill="#181818" points="507.625,1683.5,488.7362,1675.4862,497.2098,1683.6769,489.0192,1692.1505,507.625,1683.5" style="stroke:#181818;stroke-width:2.0833333333333335;"/></g><!--link Caregiver to UC_A3--><g id="link_Caregiver_UC_A3"><path d="M177.1458,3028.1667 C213.5833,2987.6875 256.8542,2931.5 279.1667,2872.9167 C311.5833,2787.8333 252.5208,2748.8333 295.8333,2668.75 C344.6042,2578.6042 435.5078,2518.6888 504.4661,2482.293 " fill="none" id="Caregiver-to-UC_A3" style="stroke:#181818;stroke-width:2.0833333333333335;"/><polygon fill="#181818" points="515.5208,2476.4583,495.049,2477.8405,506.3086,2481.3205,502.8285,2492.5801,515.5208,2476.4583" style="stroke:#181818;stroke-width:2.0833333333333335;"/></g><!--link Caregiver to UC_A4--><g id="link_Caregiver_UC_A4"><path d="M161.2708,3007.1875 C200.9583,2930.7292 255.6458,2812.4167 279.1667,2702.0833 C288.5208,2658.1667 267.625,1928.7083 295.8333,1893.75 C335.9167,1844.1042 392.2727,1827.3969 452.7519,1822.3344 " fill="none" id="Caregiver-to-UC_A4" style="stroke:#181818;stroke-width:2.0833333333333335;"/><polygon fill="#181818" points="465.2083,1821.2917,445.8286,1814.5514,454.828,1822.1606,447.2188,1831.16,465.2083,1821.2917" style="stroke:#181818;stroke-width:2.0833333333333335;"/></g><!--link Caregiver to UC_A7--><g id="link_Caregiver_UC_A7"><path d="M173.9375,3006.7917 C211.5417,2948.4375 257.375,2866.8542 279.1667,2787.5 C291.4375,2742.8333 266.875,2407 295.8333,2370.8333 C325.9167,2333.2708 359.886,2315.6171 406.5735,2304.7838 " fill="none" id="Caregiver-to-UC_A7" style="stroke:#181818;stroke-width:2.0833333333333335;"/><polygon fill="#181818" points="418.75,2301.9583,398.6016,2298.0788,408.6029,2304.3129,402.3689,2314.3141,418.75,2301.9583" style="stroke:#181818;stroke-width:2.0833333333333335;"/></g><!--link Caregiver to UC_L2--><g id="link_Caregiver_UC_L2"><path d="M126.4792,3171.9583 C149.8958,3337.6042 210.0833,3702.8125 295.8333,3791.6667 C324.7708,3821.6458 351.7623,3837.4374 391.6373,3850.2082 " fill="none" id="Caregiver-to-UC_L2" style="stroke:#181818;stroke-width:2.0833333333333335;"/><polygon fill="#181818" points="403.5417,3854.0208,388.2269,3840.3656,393.6214,3850.8436,383.1434,3856.2381,403.5417,3854.0208" style="stroke:#181818;stroke-width:2.0833333333333335;"/></g><!--link Caregiver to UC_L3--><g id="link_Caregiver_UC_L3"><path d="M120.5,3172.3958 C131.875,3289.2292 169.7292,3501.6458 295.8333,3622.9167 C325.5,3651.4375 352.2924,3666.6586 391.7091,3679.3878 " fill="none" id="Caregiver-to-UC_L3" style="stroke:#181818;stroke-width:2.0833333333333335;"/><polygon fill="#181818" points="403.6042,3683.2292,388.3224,3669.537,393.6916,3680.028,383.2006,3685.3972,403.6042,3683.2292" style="stroke:#181818;stroke-width:2.0833333333333335;"/></g><!--link Caregiver to UC_L4--><g id="link_Caregiver_UC_L4"><path d="M132,3172.0833 C153.9167,3260.6458 201.5,3399.0625 295.8333,3477.0833 C335.9792,3510.2917 376.9759,3526.1955 426.8717,3536.258 " fill="none" id="Caregiver-to-UC_L4" style="stroke:#181818;stroke-width:2.0833333333333335;"/><polygon fill="#181818" points="439.125,3538.7292,422.3925,3526.8536,428.9139,3536.6699,419.0976,3543.1913,439.125,3538.7292" style="stroke:#181818;stroke-width:2.0833333333333335;"/></g><!--link Caregiver to UC_V1--><g id="link_Caregiver_UC_V1"><path d="M124.3125,3007.1458 C143.1458,2825.6875 188.2083,2377.9583 214.5833,2002.0833 C221,1910.7708 237.5625,426.8542 295.8333,356.25 C330.6042,314.1458 373.5462,296.6412 426.5253,288.3495 " fill="none" id="Caregiver-to-UC_V1" style="stroke:#181818;stroke-width:2.0833333333333335;"/><polygon fill="#181818" points="438.875,286.4167,419.062,281.0828,428.5836,288.0274,421.6391,297.549,438.875,286.4167" style="stroke:#181818;stroke-width:2.0833333333333335;"/></g><!--link Caregiver to UC_V2--><g id="link_Caregiver_UC_V2"><path d="M124.0625,3007.125 C142.3958,2825.625 186.5625,2377.8333 214.5833,2002.0833 C215.3125,1992.3958 290.75,614.5208 295.8333,606.25 C335.4167,541.7917 397.9309,504.0759 461.2434,477.8467 " fill="none" id="Caregiver-to-UC_V2" style="stroke:#181818;stroke-width:2.0833333333333335;"/><polygon fill="#181818" points="472.7917,473.0625,452.2799,472.54,463.1682,477.0493,458.6588,487.9376,472.7917,473.0625" style="stroke:#181818;stroke-width:2.0833333333333335;"/></g><!--link Caregiver to UC_S5--><g id="link_Caregiver_UC_S5"><path d="M120.1458,3172.1667 C145.5625,3633.9167 270.25,5876 295.8333,5900 C689.5625,6269.2917 1103.0417,6254.1875 1510.4167,5900 C1732.125,5707.25 1883.1831,3469.7246 1905.6831,3117.1621 " fill="none" id="Caregiver-to-UC_S5" style="stroke:#181818;stroke-width:2.0833333333333335;"/><polygon fill="#181818" points="1906.4792,3104.6875,1896.9686,3122.8687,1905.8157,3115.083,1913.6014,3123.9302,1906.4792,3104.6875" style="stroke:#181818;stroke-width:2.0833333333333335;"/></g><!--link Caregiver to UC_S6--><g id="link_Caregiver_UC_S6"><path d="M177.2917,3106.9583 C207.2083,3114.7917 243.7917,3123.5417 277.0833,3129.1667 C333.2917,3138.6667 383.3561,3144.248 437.3145,3148.7689 " fill="none" id="Caregiver-to-UC_S6" style="stroke:#181818;stroke-width:2.0833333333333335;"/><polygon fill="#181818" points="449.7708,3149.8125,431.7821,3139.9428,439.3905,3148.9428,430.3905,3156.5513,449.7708,3149.8125" style="stroke:#181818;stroke-width:2.0833333333333335;"/></g><!--link Caregiver to UC_S7--><g id="link_Caregiver_UC_S7"><path d="M178,3080.1875 C251.6458,3069.0833 363.3063,3052.238 455.2229,3038.3839 " fill="none" id="Caregiver-to-UC_S7" style="stroke:#181818;stroke-width:2.0833333333333335;"/><polygon fill="#181818" points="467.5833,3036.5208,447.8007,3031.0751,457.283,3038.0734,450.2848,3047.5556,467.5833,3036.5208" style="stroke:#181818;stroke-width:2.0833333333333335;"/></g><!--link Caregiver to UC_AS1--><g id="link_Caregiver_UC_AS1"><path d="M123.8542,3007.1042 C141.8333,2825.5833 185.2708,2377.7292 214.5833,2002.0833 C215.25,1993.4375 290.2917,760.8542 295.8333,754.1667 C325.625,718.1667 358.1066,701.0651 403.4607,690.336 " fill="none" id="Caregiver-to-UC_AS1" style="stroke:#181818;stroke-width:2.0833333333333335;"/><polygon fill="#181818" points="415.625,687.4583,395.4602,683.6653,405.4881,689.8564,399.297,699.8843,415.625,687.4583" style="stroke:#181818;stroke-width:2.0833333333333335;"/></g><!--link Caregiver to UC_AS2--><g id="link_Caregiver_UC_AS2"><path d="M127,3007.2292 C157.7708,2780.4167 242.875,2127.25 279.1667,1581.25 C281.6458,1543.9375 272.6875,937.7083 295.8333,908.3333 C325.4792,870.75 359.0376,853.0794 405.4751,842.2044 " fill="none" id="Caregiver-to-UC_AS2" style="stroke:#181818;stroke-width:2.0833333333333335;"/><polygon fill="#181818" points="417.6458,839.3542,397.4896,835.5157,407.5036,841.7293,401.2899,851.7433,417.6458,839.3542" style="stroke:#181818;stroke-width:2.0833333333333335;"/></g><!--link Caregiver to UC_AS5--><g id="link_Caregiver_UC_AS5"><path d="M127.3333,3007.1875 C157.8333,2789.0417 240.1042,2178.0417 279.1667,1666.6667 C281.0208,1642.4167 280.4583,1248.0208 295.8333,1229.1667 C330.5208,1186.6667 373.7701,1169.1072 427.0409,1160.9197 " fill="none" id="Caregiver-to-UC_AS5" style="stroke:#181818;stroke-width:2.0833333333333335;"/><polygon fill="#181818" points="439.3958,1159.0208,419.5975,1153.6326,429.1001,1160.6032,422.1294,1170.1058,439.3958,1159.0208" style="stroke:#181818;stroke-width:2.0833333333333335;"/></g><!--link Caregiver to UC_G1--><g id="link_Caregiver_UC_G1"><path d="M117.6458,3172 C127.7083,3556.0833 176.5625,5159.5833 295.8333,5345.8333 C338.7292,5412.8333 407.8359,5450.428 473.19,5474.9071 " fill="none" id="Caregiver-to-UC_G1" style="stroke:#181818;stroke-width:2.0833333333333335;"/><polygon fill="#181818" points="484.8958,5479.2917,470.2602,5464.911,475.141,5475.6379,464.4141,5480.5187,484.8958,5479.2917" style="stroke:#181818;stroke-width:2.0833333333333335;"/></g><!--link Caregiver to UC_G2--><g id="link_Caregiver_UC_G2"><path d="M120.2917,3172.1667 C144.5417,3598.6458 256.6042,5533.5833 295.8333,5581.25 C325.1458,5616.875 356.6878,5634.2112 401.2712,5645.7112 " fill="none" id="Caregiver-to-UC_G2" style="stroke:#181818;stroke-width:2.0833333333333335;"/><polygon fill="#181818" points="413.375,5648.8333,397.3007,5636.081,403.2885,5646.2316,393.1379,5652.2194,413.375,5648.8333" style="stroke:#181818;stroke-width:2.0833333333333335;"/></g><!--link Caregiver to UC_M1--><g id="link_Caregiver_UC_M1"><path d="M118.0417,3172.375 C126.75,3421.4583 163.3542,4158.6875 295.8333,4352.0833 C340.9583,4417.9583 410.3451,4455.6609 475.241,4480.4734 " fill="none" id="Caregiver-to-UC_M1" style="stroke:#181818;stroke-width:2.0833333333333335;"/><polygon fill="#181818" points="486.9167,4484.9375,472.3792,4470.4575,477.1869,4481.2174,466.4271,4486.0251,486.9167,4484.9375" style="stroke:#181818;stroke-width:2.0833333333333335;"/></g><!--link Caregiver to UC_M2--><g id="link_Caregiver_UC_M2"><path d="M120.25,3172.6875 C137.625,3471.5 202.6875,4479.5417 295.8333,4587.5 C326.4792,4623.0208 359.2326,4640.3015 404.566,4651.7182 " fill="none" id="Caregiver-to-UC_M2" style="stroke:#181818;stroke-width:2.0833333333333335;"/><polygon fill="#181818" points="416.6875,4654.7708,400.5403,4642.1108,406.5862,4652.2269,396.4701,4658.2729,416.6875,4654.7708" style="stroke:#181818;stroke-width:2.0833333333333335;"/></g><!--link Sensor to UC_AI1--><g id="link_Sensor_UC_AI1"><path d="M214.6875,5083.3333 C256.1458,5083.3333 293.6875,5083.3333 343.4375,5083.3333 " fill="none" id="Sensor-to-UC_AI1" style="stroke:#181818;stroke-width:2.0833333333333335;"/><polygon fill="#181818" points="355.9375,5083.3333,337.1875,5075,345.5208,5083.3333,337.1875,5091.6667,355.9375,5083.3333" style="stroke:#181818;stroke-width:2.0833333333333335;"/></g><!--link Sensor to UC_AI2--><g id="link_Sensor_UC_AI2"><path d="M215.4375,5135.1458 C241.2917,5147.625 269.3125,5160.3542 295.8333,5170.8333 C341.8542,5189 381.1447,5202.2597 427.603,5216.3847 " fill="none" id="Sensor-to-UC_AI2" style="stroke:#181818;stroke-width:2.0833333333333335;"/><polygon fill="#181818" points="439.5625,5220.0208,424.0474,5206.5937,429.5963,5216.9907,419.1992,5222.5396,439.5625,5220.0208" style="stroke:#181818;stroke-width:2.0833333333333335;"/></g><!--link Sensor to UC_AI3--><g id="link_Sensor_UC_AI3"><path d="M215.3125,5031.1667 C241.1458,5018.6875 269.2083,5006.0417 295.8333,4995.8333 C344.9167,4977.0208 388.0586,4963.4647 436.9752,4949.9022 " fill="none" id="Sensor-to-UC_AI3" style="stroke:#181818;stroke-width:2.0833333333333335;"/><polygon fill="#181818" points="449.0208,4946.5625,428.726,4943.5417,438.9828,4949.3456,433.1789,4959.6025,449.0208,4946.5625" style="stroke:#181818;stroke-width:2.0833333333333335;"/></g><!--link Sensor to UC_G3--><g id="link_Sensor_UC_G3"><path d="M114.4583,5183.3958 C118.375,5326.0208 147.1667,5587.125 295.8333,5737.5 C326.7292,5768.75 356.5269,5784.9377 398.756,5797.3335 " fill="none" id="Sensor-to-UC_G3" style="stroke:#181818;stroke-width:2.0833333333333335;"/><polygon fill="#181818" points="410.75,5800.8542,395.1062,5787.5772,400.755,5797.9203,390.412,5803.5691,410.75,5800.8542" style="stroke:#181818;stroke-width:2.0833333333333335;"/></g><!--link Sensor to UC_AC1--><g id="link_Sensor_UC_AC1"><path d="M120.7708,4983.0833 C132.4792,4847.5625 170.7292,4604.4167 295.8333,4443.75 C344.6667,4381.0417 412.6497,4342.5882 476.0039,4315.859 " fill="none" id="Sensor-to-UC_AC1" style="stroke:#181818;stroke-width:2.0833333333333335;"/><polygon fill="#181818" points="487.5208,4311,467.0061,4310.6105,477.9234,4315.0492,473.4848,4325.9665,487.5208,4311" style="stroke:#181818;stroke-width:2.0833333333333335;"/></g><!--link UC_AI1 to UC_S3--><g id="link_UC_AI1_UC_S3"><path d="M777.6875,5053.8542 C812.6875,5040.5625 846.0208,5021.3958 870.8333,4993.75 C1137.9792,4696.1875 1244.3055,3346.6147 1261.2638,3106.8855 " fill="none" id="UC_AI1-to-UC_S3" style="stroke:#181818;stroke-width:2.0833333333333335;stroke-dasharray:7.0,7.0;"/><polygon fill="#181818" points="1262.1458,3094.4167,1252.5102,3112.5319,1261.4108,3104.8074,1269.1353,3113.708,1262.1458,3094.4167" style="stroke:#181818;stroke-width:2.0833333333333335;"/><text fill="#000000" font-family="sans-serif" font-size="27.0833" lengthAdjust="spacing" textLength="115.9505" x="893.75" y="4744.7815">&#171;include&#187;</text></g><!--link UC_S1 to UC_S5--><g id="link_UC_S1_UC_S5"><path d="M1327.2917,2768.7292 C1441.4375,2825.5 1682.7875,2945.5992 1814.5375,3011.1408 " fill="none" id="UC_S1-to-UC_S5" style="stroke:#181818;stroke-width:2.0833333333333335;stroke-dasharray:7.0,7.0;"/><polygon fill="#181818" points="1825.7292,3016.7083,1812.6534,3000.896,1816.4028,3012.0687,1805.23,3015.8182,1825.7292,3016.7083" style="stroke:#181818;stroke-width:2.0833333333333335;"/><text fill="#000000" font-family="sans-serif" font-size="27.0833" lengthAdjust="spacing" textLength="115.9505" x="1529.1667" y="2863.5315">&#171;include&#187;</text></g><!--link UC_S3 to UC_S5--><g id="link_UC_S3_UC_S5"><path d="M1417.3333,3058.3333 C1503.8333,3058.3333 1601.5417,3058.3333 1695.7083,3058.3333 " fill="none" id="UC_S3-to-UC_S5" style="stroke:#181818;stroke-width:2.0833333333333335;stroke-dasharray:7.0,7.0;"/><polygon fill="#181818" points="1708.2083,3058.3333,1689.4583,3050,1697.7917,3058.3333,1689.4583,3066.6667,1708.2083,3058.3333" style="stroke:#181818;stroke-width:2.0833333333333335;"/><text fill="#000000" font-family="sans-serif" font-size="27.0833" lengthAdjust="spacing" textLength="115.9505" x="1529.1667" y="3051.0315">&#171;include&#187;</text></g><!--link UC_G3 to UC_G4--><g id="link_UC_G3_UC_G4"><path d="M714.2083,5786.375 C763.3125,5772.1667 820.0208,5754.9375 870.8333,5737.5 C978.8125,5700.4375 1089.3411,5656.2892 1168.5494,5623.6017 " fill="none" id="UC_G3-to-UC_G4" style="stroke:#181818;stroke-width:2.0833333333333335;stroke-dasharray:7.0,7.0;"/><polygon fill="#181818" points="1180.1042,5618.8333,1159.5931,5618.2827,1170.4752,5622.807,1165.951,5633.6891,1180.1042,5618.8333" style="stroke:#181818;stroke-width:2.0833333333333335;"/><text fill="#000000" font-family="sans-serif" font-size="27.0833" lengthAdjust="spacing" textLength="115.9505" x="893.75" y="5684.3648">&#171;include&#187;</text></g><!--link UC_G4 to UC_S5--><g id="link_UC_G4_UC_S5"><path d="M1279.0625,5542.6458 C1354.3125,5246.1042 1814.5718,3431.9911 1894.5509,3116.7619 " fill="none" id="UC_G4-to-UC_S5" style="stroke:#181818;stroke-width:2.0833333333333335;stroke-dasharray:7.0,7.0;"/><polygon fill="#181818" points="1897.625,3104.6458,1884.9365,3120.7706,1895.0633,3114.7426,1901.0913,3124.8694,1897.625,3104.6458" style="stroke:#181818;stroke-width:2.0833333333333335;"/><text fill="#000000" font-family="sans-serif" font-size="27.0833" lengthAdjust="spacing" textLength="115.9505" x="1529.1667" y="4163.5315">&#171;include&#187;</text></g><!--link UC_AS2 to UC_AS3--><g id="link_UC_AS2_UC_AS3"><path d="M699.7917,861.4375 C751.6875,875.6458 814.4375,892.8542 870.8333,908.3333 C961.7708,933.3125 1052.4493,958.2413 1130.1576,979.658 " fill="none" id="UC_AS2-to-UC_AS3" style="stroke:#181818;stroke-width:2.0833333333333335;stroke-dasharray:7.0,7.0;"/><polygon fill="#181818" points="1142.2083,982.9792,1126.3464,969.9635,1132.1661,980.2115,1121.9181,986.0312,1142.2083,982.9792" style="stroke:#181818;stroke-width:2.0833333333333335;"/><text fill="#000000" font-family="sans-serif" font-size="27.0833" lengthAdjust="spacing" textLength="115.9505" x="893.75" y="907.2815">&#171;include&#187;</text></g><!--link UC_AS6 to UC_S5--><g id="link_UC_AS6_UC_S5"><path d="M678.875,1353.7292 C737.8958,1383.9167 814.4792,1429.0208 870.8333,1483.3333 C1397.375,1990.7083 1790.1284,2799.6127 1883.3368,3001.1752 " fill="none" id="UC_AS6-to-UC_S5" style="stroke:#181818;stroke-width:2.0833333333333335;stroke-dasharray:7.0,7.0;"/><polygon fill="#181818" points="1888.5833,3012.5208,1888.2773,2992.0047,1884.2112,3003.0661,1873.1497,2999.0001,1888.5833,3012.5208" style="stroke:#181818;stroke-width:2.0833333333333335;"/><text fill="#000000" font-family="sans-serif" font-size="27.0833" lengthAdjust="spacing" textLength="115.9505" x="1209.375" y="1707.2815">&#171;include&#187;</text></g><!--link UC_S2 to UC_S1--><g id="link_UC_S2_UC_S1"><path d="M729.4375,2736.2917 C846.25,2737 999.3336,2737.9422 1115.2919,2738.6714 " fill="none" id="UC_S2-to-UC_S1" style="stroke:#181818;stroke-width:2.0833333333333335;stroke-dasharray:7.0,7.0;"/><polygon fill="#181818" points="1127.7917,2738.75,1109.0944,2730.2989,1117.3752,2738.6845,1108.9896,2746.9653,1127.7917,2738.75" style="stroke:#181818;stroke-width:2.0833333333333335;"/><text fill="#000000" font-family="sans-serif" font-size="27.0833" lengthAdjust="spacing" textLength="111.441" x="895.8333" y="2730.1982">&#171;extend&#187;</text></g><!--link UC_S4 to UC_S3--><g id="link_UC_S4_UC_S3"><path d="M693.9375,2902.6667 C747,2915.8542 812.4375,2932.375 870.8333,2947.9167 C973.3958,2975.2083 1078.4407,3004.8527 1158.0865,3027.6443 " fill="none" id="UC_S4-to-UC_S3" style="stroke:#181818;stroke-width:2.0833333333333335;stroke-dasharray:7.0,7.0;"/><polygon fill="#181818" points="1170.1042,3031.0833,1154.3704,3017.9131,1160.0895,3028.2175,1149.7851,3033.9366,1170.1042,3031.0833" style="stroke:#181818;stroke-width:2.0833333333333335;"/><text fill="#000000" font-family="sans-serif" font-size="27.0833" lengthAdjust="spacing" textLength="111.441" x="895.8333" y="2946.8648">&#171;extend&#187;</text></g><!--link UC_AS6 to UC_AS3--><g id="link_UC_AS6_UC_AS3"><path d="M726.0208,1278.2083 C772.6667,1264.8958 824.7083,1248.2083 870.8333,1229.1667 C990.75,1179.6667 1111.0802,1110.8111 1187.6844,1064.3944 " fill="none" id="UC_AS6-to-UC_AS3" style="stroke:#181818;stroke-width:2.0833333333333335;stroke-dasharray:7.0,7.0;"/><polygon fill="#181818" points="1198.375,1057.9167,1178.0206,1060.5062,1189.4662,1063.3148,1186.6576,1074.7603,1198.375,1057.9167" style="stroke:#181818;stroke-width:2.0833333333333335;"/><text fill="#000000" font-family="sans-serif" font-size="27.0833" lengthAdjust="spacing" textLength="111.441" x="895.8333" y="1161.4482">&#171;extend&#187;</text></g><!--SRC=[VLPjRzis4FxkNq5amDPyS9lOZXCCHG1LTRm0TZDKZOS10mQMEak4PL8JwRXUiV- -erueYsIJBx6UU-w5pnrFAc2hYPQaubckISehO9fBCL8xBafQqJqfATlH319zAe0OCnLP0MS4ohIi6ZCzWfBxSwFAQIgFN6HaImjrRabBJYPNLsV8GG6Z2iZt4S6_3vWtg-H1fB4iP4L-UbWyBE95OvDL2bMBHtTNLzFvw3-tf1_5-HWjxXvYFyuylbjyUC0uer_8U3mcaGcYpCzH4-yFe1LKxKEClpF-Of-ZTCz5-_iYsTDA7wbc-L_YZGAX45JoK36ul21KaQI6kaJFU6PpS4LCdIMaX0lJaaxhfWRxI2wYWyv1QCwewHNvcVnUoIqluA8zSYVanMSiKMcewgJFyT_HzT2-aXdcijQ9wwr0O_-LEg9EbZKTiXOfHr9NGCkP1JXxIB7YmkFU3BbhAd3S2EoXoa2m4s5IQDHLMOVvqE6Bp8mgGcg-RINfkRUcdsVIhRZ0ASayfHx52zUc3MrNoTSJba1vqKLQET95Z46fpnouYL1djowEdX-15Lp0wpwEkiy2NNQzY-NDd8DjC52XS1PmR3b6FNb7t70uaWA3a9UQsuNQN0TuarbkRb4TYR0SnxddJmBy8y2kE14SjhAXM_RKAJGg08DXeGdTGg3CBxYACjGcUKgw68bJOIp5bbVx0SKf2g-87AUWCQ_PFBQDYQDlJ0M3egOGQYgpn9bx6HWOxSg3oWUpPXrk0hBK8L5qrSUTUvTC5XXtcDmTsoU1XtdX34ZqwD_oWsWEq9pNh8Gt3mU5_p-1lhHNuV7QTxCjnbmo4xnn_YtwVEOsyTrm75DE6M45BWTFYUZHxNcCGrpV_GZf2b7j7UAf12odCviPicf4RlyZjICvq4Bdv9y3g47krmR1xfIUFGrtkG9LuXe1SkIOXBMNj5yhtdHGtJlrh9j0BQ1G24CFL3DtT5k2t28ZjB3Y2amGXPU8_2k5JRgyzbVlknGA29Az3LNhb3LfWNp592otR4SiV8kbFNSmm4jtFQrf-Sf2AkHmWjQXbTIHI8up8YihsthYRXYMStX1UOLPMj-zXIhP3WVVSgpySIWh7GJhc9F-Cw7vAZ2ZAnblngH-NxVuU7pVldaTOE82KnUOkS2D2ynTuDO1LcxQbHjqup8sRc4Rjx34Eqi0yOwNUDMZYgs6zcFAbx4tzSBvs3I0pGBOhO-j0l5MWNYhG3mKpyS2yV3iFZOFO87wZBW1CAH2ACqouBqCEAy3lBLjK7B-3Tj-Nflkj7XN0BvYN6JY8LC7MRg0kOXjtaV1YaCAv1s1RzgicmgAPZXoNYhovkdJwa_ol5wP3uyAf3wLe2xhoffooDktZR1JyYjv_vutuUxlH_KO4sk-2PYdhvgNlNav2vXdhtfZ_pfp5AeDNmK_TA-Bc_JXyHY6q0ZKrdwMVUgRpw9tsQtvVm00]--></g></svg>